<svg width="24" height="24" viewBox="0 0 24 24" fill="none" xmlns="http://www.w3.org/2000/svg">
<path d="M17.1937 13.7003C18.7559 10.0365 19.9826 8.84496 23.7557 7.32684C23.9024 7.26788 23.9984 7.12574 23.9984 6.96773C23.9984 6.80971 23.9024 6.66757 23.7557 6.60861C19.9826 5.09045 18.7559 3.89893 17.1937 0.235123C17.1328 0.0925938 16.9926 0 16.8376 0C16.6826 0 16.5424 0.0926325 16.4815 0.235123C14.9193 3.89893 13.6927 5.09049 9.91948 6.60861C9.77282 6.66757 9.67679 6.80971 9.67679 6.96773C9.67679 7.12574 9.77278 7.26788 9.91948 7.32684C13.6927 8.845 14.9193 10.0365 16.4815 13.7003C16.5424 13.8429 16.6826 13.9355 16.8376 13.9355C16.9926 13.9355 17.1328 13.8428 17.1937 13.7003ZM6.16365 18.5353C7.40425 15.5398 8.37797 14.566 11.3732 13.3253C11.5178 13.2656 11.6121 13.1242 11.6121 12.9677C11.6121 12.8112 11.5178 12.6698 11.3732 12.6101C8.37797 11.3694 7.40425 10.3956 6.16365 7.40015C6.10373 7.25538 5.96256 7.16124 5.80607 7.16124C5.64958 7.16124 5.50841 7.25538 5.44849 7.40015C4.20789 10.3956 3.23417 11.3694 0.2389 12.6101C0.0943293 12.6698 0 12.8112 0 12.9677C0 13.1242 0.0943293 13.2656 0.2389 13.3253C3.23417 14.566 4.20789 15.5398 5.44849 18.5353C5.50841 18.68 5.64958 18.7742 5.80607 18.7742C5.96256 18.7742 6.10373 18.68 6.16365 18.5353ZM15.0663 23.7611C16.0302 21.4332 16.7869 20.6764 19.1147 19.7124C19.259 19.6527 19.3536 19.5113 19.3536 19.3548C19.3536 19.1983 19.2591 19.057 19.1147 18.9972C16.7869 18.0333 16.0302 17.2765 15.0663 14.9486C15.0066 14.8042 14.8652 14.7096 14.7087 14.7096C14.5522 14.7096 14.4109 14.8041 14.3511 14.9486C13.3873 17.2765 12.6305 18.0333 10.3028 18.9972C10.1582 19.057 10.0639 19.1983 10.0639 19.3548C10.0639 19.5113 10.1582 19.6527 10.3028 19.7124C12.6305 20.6764 13.3873 21.4332 14.3511 23.7611C14.4109 23.9055 14.5522 24 14.7087 24C14.8652 24 15.0066 23.9055 15.0663 23.7611Z" fill="#E9E9E9"/>
</svg>
