<svg width="14" height="16" viewBox="0 0 14 16" fill="none" xmlns="http://www.w3.org/2000/svg">
<path d="M9.02651 13.0139C9.02651 14.1798 8.0569 15.125 6.86081 15.125C5.66472 15.125 4.69511 14.1798 4.69511 13.0139H9.02651Z" stroke="#9BB4CC"/>
<path d="M12.1213 13.0139H1.87873C1.25123 13.0139 0.946538 12.5015 1.00769 11.9177C1.02225 11.7787 1.07968 11.6488 1.14939 11.5277L2.10149 9.8732C2.31158 9.50812 2.44244 9.1029 2.48554 8.6839L2.71533 6.45042C2.73573 6.25211 2.76477 6.0556 2.82254 5.86481C3.02891 5.1832 3.69857 3.47556 5.37573 2.77043V2.45833C5.37573 1.58388 6.10295 0.875 7.00001 0.875C7.89707 0.875 8.62429 1.58388 8.62429 2.45833V2.77044C10.2453 3.45196 10.9251 5.07001 11.1552 5.79299C11.2308 6.03067 11.2638 6.27748 11.2831 6.52615L11.4445 8.60426C11.481 9.07442 11.6278 9.52935 11.8731 9.93215L12.8363 11.5142C12.9155 11.6442 12.9803 11.785 12.9942 11.9366C13.0469 12.5125 12.742 13.0139 12.1213 13.0139Z" stroke="#9BB4CC"/>
</svg>
