<svg width="24" height="24" viewBox="0 0 24 24" fill="none" xmlns="http://www.w3.org/2000/svg">
<path d="M14.0265 17.0139C14.0265 18.1798 13.0569 19.125 11.8608 19.125C10.6647 19.125 9.69511 18.1798 9.69511 17.0139H14.0265Z" stroke="#9BB4CC"/>
<path d="M17.1213 17.0139H6.87873C6.25123 17.0139 5.94654 16.5015 6.00769 15.9177C6.02225 15.7787 6.07968 15.6488 6.14939 15.5277L7.10149 13.8732C7.31158 13.5081 7.44244 13.1029 7.48554 12.6839L7.71533 10.4504C7.73573 10.2521 7.76477 10.0556 7.82254 9.86481C8.02891 9.1832 8.69857 7.47556 10.3757 6.77043V6.45833C10.3757 5.58388 11.1029 4.875 12 4.875C12.8971 4.875 13.6243 5.58388 13.6243 6.45833V6.77044C15.2453 7.45196 15.9251 9.07001 16.1552 9.79299C16.2308 10.0307 16.2638 10.2775 16.2831 10.5261L16.4445 12.6043C16.481 13.0744 16.6278 13.5294 16.8731 13.9321L17.8363 15.5142C17.9155 15.6442 17.9803 15.785 17.9942 15.9366C18.0469 16.5125 17.742 17.0139 17.1213 17.0139Z" stroke="#9BB4CC"/>
</svg>
