<svg width="24" height="24" viewBox="0 0 24 24" fill="none" xmlns="http://www.w3.org/2000/svg">
<path fill-rule="evenodd" clip-rule="evenodd" d="M19.4783 4.52173C19.6736 4.71701 19.6735 5.03359 19.4783 5.22883L15.2939 9.41236L18.4731 9.41236C18.7492 9.41236 18.9731 9.63622 18.9731 9.91236C18.9731 10.1885 18.7492 10.4124 18.4731 10.4124L14.0893 10.4124C14.0891 10.4124 14.0896 10.4124 14.0893 10.4124C13.957 10.4122 13.8294 10.3595 13.7358 10.2659C13.642 10.1721 13.5893 10.045 13.5893 9.91236V9.86025C13.6008 9.75015 13.6487 9.64313 13.7331 9.55877L14.5893 8.70272V9.41236M14.5893 8.70272V5.52779C14.5893 5.25165 14.3655 5.02779 14.0893 5.02779C13.8132 5.02779 13.5893 5.25165 13.5893 5.52779V9.86025C13.5743 10.005 13.6222 10.155 13.733 10.2659C13.8312 10.364 13.9607 10.4129 14.0893 10.4124M14.5893 8.70272L18.7712 4.52166C18.9665 4.32641 19.2831 4.32644 19.4783 4.52173M5.57622 13.5389C5.57622 13.2627 5.80008 13.0389 6.07622 13.0389H10.46C10.7361 13.0389 10.96 13.2627 10.96 13.5389L10.96 17.9235C10.96 18.1996 10.7361 18.4235 10.46 18.4235C10.1838 18.4235 9.95997 18.1996 9.95997 17.9235L9.95997 14.7462L5.2284 19.4787C5.03316 19.674 4.71658 19.674 4.5213 19.4787C4.32602 19.2835 4.32599 18.9669 4.52123 18.7716L9.25309 14.0389H6.07622C5.80008 14.0389 5.57622 13.815 5.57622 13.5389Z" fill="#DCEDFD"/>
</svg>
