<svg width="16" height="16" viewBox="0 0 16 16" fill="none" xmlns="http://www.w3.org/2000/svg">
<path d="M8 10.1923C7.39461 10.1923 6.90385 10.6831 6.90385 11.2885C6.90385 11.8939 7.39461 12.3846 8 12.3846C8.60539 12.3846 9.09615 11.8939 9.09615 11.2885C9.09615 10.6831 8.60539 10.1923 8 10.1923ZM8 10.1923L9.64423 6.35577M3.61538 8C3.61538 5.57844 5.57844 3.61538 8 3.61538C10.4216 3.61538 12.3846 5.57844 12.3846 8M15.125 8C15.125 11.935 11.935 15.125 8 15.125C4.06497 15.125 0.875 11.935 0.875 8C0.875 4.06497 4.06497 0.875 8 0.875C11.935 0.875 15.125 4.06497 15.125 8Z" stroke="#9BB4CC" stroke-linecap="round" stroke-linejoin="round"/>
</svg>
