<svg width="24" height="24" viewBox="0 0 24 24" fill="none" xmlns="http://www.w3.org/2000/svg">
<path d="M12 14.1923C11.3946 14.1923 10.9038 14.6831 10.9038 15.2885C10.9038 15.8939 11.3946 16.3846 12 16.3846C12.6054 16.3846 13.0962 15.8939 13.0962 15.2885C13.0962 14.6831 12.6054 14.1923 12 14.1923ZM12 14.1923L13.6442 10.3558M7.61538 12C7.61538 9.57844 9.57844 7.61538 12 7.61538C14.4216 7.61538 16.3846 9.57844 16.3846 12M19.125 12C19.125 15.935 15.935 19.125 12 19.125C8.06497 19.125 4.875 15.935 4.875 12C4.875 8.06497 8.06497 4.875 12 4.875C15.935 4.875 19.125 8.06497 19.125 12Z" stroke="#9BB4CC" stroke-linecap="round" stroke-linejoin="round"/>
</svg>
