<svg width="22" height="22" viewBox="0 0 22 22" fill="none" xmlns="http://www.w3.org/2000/svg">
<path d="M9.48324 16.7788L9.73734 16.3482L9.48324 16.7788ZM12.5168 16.7788L12.2627 16.3482L12.5168 16.7788ZM9.32363 10.2081C9.11311 10.0294 8.79758 10.0551 8.61887 10.2657C8.44015 10.4762 8.46593 10.7917 8.67645 10.9704L9.32363 10.2081ZM10.5 11.8627L10.1764 12.2438C10.2777 12.3298 10.4089 12.3719 10.5413 12.3609C10.6736 12.35 10.7962 12.2868 10.8819 12.1854L10.5 11.8627ZM13.3819 9.22789C13.5602 9.01699 13.5337 8.70152 13.3228 8.52325C13.1119 8.34498 12.7964 8.37143 12.6182 8.58233L13.3819 9.22789ZM8.25 4.96875H13.75V3.96875H8.25V4.96875ZM16 7.21875V10.8768H17V7.21875H16ZM6 10.8768V7.21875H5V10.8768H6ZM9.73734 16.3482C7.53721 15.0499 6 13.1011 6 10.8768H5C5 13.5946 6.86749 15.8159 9.22915 17.2094L9.73734 16.3482ZM16 10.8768C16 13.1011 14.4628 15.0499 12.2627 16.3482L12.7709 17.2094C15.1325 15.8159 17 13.5946 17 10.8768H16ZM9.22915 17.2094C10.3209 17.8536 11.6791 17.8536 12.7709 17.2094L12.2627 16.3482C11.4845 16.8073 10.5155 16.8073 9.73734 16.3482L9.22915 17.2094ZM13.75 4.96875C14.9926 4.96875 16 5.97611 16 7.21875H17C17 5.42383 15.5449 3.96875 13.75 3.96875V4.96875ZM8.25 3.96875C6.45507 3.96875 5 5.42383 5 7.21875H6C6 5.97611 7.00736 4.96875 8.25 4.96875V3.96875ZM8.67645 10.9704L10.1764 12.2438L10.8236 11.4815L9.32363 10.2081L8.67645 10.9704ZM10.8819 12.1854L13.3819 9.22789L12.6182 8.58233L10.1182 11.5399L10.8819 12.1854Z" fill="#038C8C"/>
</svg>
