<svg width="32" height="32" viewBox="0 0 32 32" fill="none" xmlns="http://www.w3.org/2000/svg">
<path fill-rule="evenodd" clip-rule="evenodd" d="M7.5 10.5C7.5 8.01472 9.51472 6 12 6H20C22.4853 6 24.5 8.01472 24.5 10.5V15.8208C24.5 19.6618 21.8587 22.8308 18.4603 24.8361C16.9436 25.7311 15.0564 25.7311 13.5397 24.8361C10.1413 22.8308 7.5 19.6618 7.5 15.8208V10.5ZM12 7C10.067 7 8.5 8.56701 8.5 10.5V15.8208C8.5 19.1684 10.811 22.0649 14.0479 23.9749C15.2511 24.6848 16.7489 24.6848 17.9521 23.9749C21.189 22.0649 23.5 19.1684 23.5 15.8208V10.5C23.5 8.567 21.933 7 20 7H12ZM19.2319 12.571C19.4428 12.7493 19.4693 13.0648 19.291 13.2757L15.6546 17.5775C15.5689 17.679 15.4464 17.7421 15.314 17.7531C15.1817 17.764 15.0504 17.7219 14.9492 17.6359L12.7674 15.7837C12.5569 15.605 12.5311 15.2895 12.7098 15.0789C12.8885 14.8684 13.204 14.8427 13.4146 15.0214L15.2144 16.5493L18.5273 12.6301C18.7056 12.4192 19.021 12.3928 19.2319 12.571Z" fill="#F5F5F5"/>
</svg>
