<svg width="22" height="22" viewBox="0 0 22 22" fill="none" xmlns="http://www.w3.org/2000/svg">
<path d="M16.3987 17.5312C16.4017 17.5312 16.4046 17.5312 16.4076 17.5312M16.4076 17.5312C17.0278 17.5263 17.5312 17.0123 17.5312 16.3811L17.5313 8.48928C17.5313 7.85506 17.0252 7.33963 16.4008 7.33963L15.2076 7.33963C14.5833 7.33963 14.0772 6.8255 14.0772 6.19128C14.0772 5.23995 13.3181 4.46875 12.3816 4.46875C11.4452 4.46875 10.686 5.23995 10.686 6.19128C10.686 6.82549 10.1799 7.33963 9.55559 7.33963L8.42518 7.33963C7.80088 7.33963 7.29477 7.85386 7.29477 8.48807L7.29477 9.56447C7.29477 10.1987 6.78867 10.7129 6.16436 10.7129C5.2279 10.7129 4.46875 11.4841 4.46875 12.4354C4.46875 13.3868 5.2279 14.158 6.16436 14.158C6.78867 14.158 7.29477 14.6721 7.29477 15.3063L7.29477 16.3829C7.29477 17.0171 7.80259 17.5312 8.4269 17.5312L10.686 17.5312L10.686 16.3829C10.686 15.4315 11.4452 14.6603 12.3816 14.6603C13.3181 14.6603 14.0772 15.4315 14.0772 16.3829L14.0772 17.5312L16.4076 17.5312Z" stroke="#999999" stroke-linecap="round" stroke-linejoin="round"/>
</svg>
