<svg width="22" height="22" viewBox="0 0 22 22" fill="none" xmlns="http://www.w3.org/2000/svg">
<path d="M11 13.0096C10.4451 13.0096 9.99519 13.4595 9.99519 14.0144C9.99519 14.5694 10.4451 15.0192 11 15.0192C11.5549 15.0192 12.0048 14.5694 12.0048 14.0144C12.0048 13.4595 11.5549 13.0096 11 13.0096ZM11 13.0096L12.5072 9.49279M6.98077 11C6.98077 8.78024 8.78024 6.98077 11 6.98077C13.2198 6.98077 15.0192 8.78024 15.0192 11M17.5312 11C17.5312 14.6071 14.6071 17.5312 11 17.5312C7.39289 17.5312 4.46875 14.6071 4.46875 11C4.46875 7.39289 7.39289 4.46875 11 4.46875C14.6071 4.46875 17.5312 7.39289 17.5312 11Z" stroke="#038C8C" stroke-linecap="round" stroke-linejoin="round"/>
</svg>
