<svg width="64" height="64" viewBox="0 0 64 64" fill="none" xmlns="http://www.w3.org/2000/svg">
<rect x="1" y="1" width="62" height="62" rx="31" fill="#171F29"/>
<path d="M44.374 40.9814C43.7003 39.3856 42.7226 37.936 41.4954 36.7135C40.2719 35.4875 38.8227 34.51 37.2275 33.8349C37.2133 33.8278 37.199 33.8242 37.1847 33.8171C39.4097 32.2099 40.8561 29.5921 40.8561 26.6385C40.8561 21.7457 36.8918 17.7814 31.999 17.7814C27.1061 17.7814 23.1418 21.7457 23.1418 26.6385C23.1418 29.5921 24.5883 32.2099 26.8133 33.8207C26.799 33.8278 26.7847 33.8314 26.7704 33.8385C25.1704 34.5135 23.7347 35.4814 22.5025 36.7171C21.2765 37.9405 20.299 39.3898 19.624 40.9849C18.9608 42.5466 18.6032 44.2208 18.5704 45.9171C18.5694 45.9552 18.5761 45.9931 18.5901 46.0286C18.604 46.0641 18.6249 46.0965 18.6515 46.1238C18.6781 46.1511 18.71 46.1727 18.7451 46.1875C18.7802 46.2023 18.818 46.21 18.8561 46.21H20.999C21.1561 46.21 21.2811 46.085 21.2847 45.9314C21.3561 43.1742 22.4633 40.5921 24.4204 38.6349C26.4454 36.6099 29.1347 35.4957 31.999 35.4957C34.8633 35.4957 37.5525 36.6099 39.5775 38.6349C41.5347 40.5921 42.6418 43.1742 42.7133 45.9314C42.7168 46.0885 42.8418 46.21 42.999 46.21H45.1418C45.18 46.21 45.2177 46.2023 45.2528 46.1875C45.288 46.1727 45.3198 46.1511 45.3464 46.1238C45.3731 46.0965 45.3939 46.0641 45.4079 46.0286C45.4218 45.9931 45.4285 45.9552 45.4275 45.9171C45.3918 44.2099 45.0383 42.5492 44.374 40.9814ZM31.999 32.7814C30.3597 32.7814 28.8168 32.1421 27.6561 30.9814C26.4954 29.8207 25.8561 28.2778 25.8561 26.6385C25.8561 24.9992 26.4954 23.4564 27.6561 22.2957C28.8168 21.1349 30.3597 20.4957 31.999 20.4957C33.6383 20.4957 35.1811 21.1349 36.3418 22.2957C37.5025 23.4564 38.1418 24.9992 38.1418 26.6385C38.1418 28.2778 37.5025 29.8207 36.3418 30.9814C35.1811 32.1421 33.6383 32.7814 31.999 32.7814Z" fill="#038C8C"/>
<rect x="1" y="1" width="62" height="62" rx="31" stroke="#038C8C" stroke-width="2"/>
</svg>
