<svg width="16" height="16" viewBox="0 0 16 16" fill="none" xmlns="http://www.w3.org/2000/svg">
<path d="M0.875 3.125H1.375H0.875ZM0.875 4.65384L0.375 4.65384L0.875 4.65384ZM4.65384 6.90384V6.40384H4.65384L4.65384 6.90384ZM3.125 6.90384V7.40384L3.125 7.40384L3.125 6.90384ZM6.90384 3.125H6.40384H6.90384ZM6.90384 4.65384H7.40384H6.90384ZM4.65385 0.875003L4.65385 0.375003L4.65385 0.875003ZM3.12501 0.875L3.12501 0.375L3.12501 0.875ZM9.09615 3.125H8.59615H9.09615ZM9.09615 4.65384H9.59615H9.09615ZM12.875 6.90384V6.40384V6.90384ZM11.3462 6.90384L11.3462 7.40384L11.3462 7.40384V6.90384ZM15.125 3.125H14.625H15.125ZM15.125 4.65384H15.625H15.125ZM12.875 0.875003L12.875 0.375003L12.875 0.875003ZM11.3462 0.875L11.3462 1.375L11.3462 0.875ZM0.875 11.3462H1.375H0.875ZM0.875 12.875L0.375 12.875L0.875 12.875ZM4.65384 15.125V14.625V15.125ZM3.125 15.125V15.625V15.125ZM6.90384 11.3462H6.40384H6.90384ZM6.90384 12.875H7.40384H6.90384ZM4.65385 9.09616L4.65385 9.59616L4.65385 9.09616ZM3.12501 9.09615L3.12501 8.59615H3.12501L3.12501 9.09615ZM9.09615 11.3462H8.59615H9.09615ZM9.09615 12.875H9.59615H9.09615ZM12.875 15.125V14.625V15.125ZM11.3462 15.125L11.3462 15.625H11.3462V15.125ZM15.125 11.3462H14.625H15.125ZM15.125 12.875H15.625H15.125ZM12.875 9.09616L12.875 9.59616L12.875 9.09616ZM11.3462 9.09615L11.3462 8.59615L11.3462 9.09615ZM0.375 3.125L0.375 4.65384L1.375 4.65384L1.375 3.125H0.375ZM4.65384 6.40384L3.125 6.40384L3.125 7.40384L4.65385 7.40384L4.65384 6.40384ZM6.40384 3.125V4.65384H7.40384V3.125H6.40384ZM4.65385 0.375003L3.12501 0.375L3.12501 1.375L4.65385 1.375L4.65385 0.375003ZM7.40384 3.125C7.40384 1.60622 6.17263 0.375007 4.65385 0.375003L4.65385 1.375C5.62035 1.37501 6.40384 2.15851 6.40384 3.125H7.40384ZM1.375 3.125C1.375 2.1585 2.15851 1.375 3.12501 1.375L3.12501 0.375C1.60622 0.374997 0.375 1.60621 0.375 3.125H1.375ZM0.375 4.65384C0.375 6.17263 1.60621 7.40384 3.125 7.40384V6.40384C2.1585 6.40384 1.375 5.62034 1.375 4.65384L0.375 4.65384ZM4.65384 7.40384C6.17263 7.40384 7.40384 6.17262 7.40384 4.65384H6.40384C6.40384 5.62034 5.62034 6.40384 4.65384 6.40384V7.40384ZM8.59615 3.125V4.65384H9.59615V3.125H8.59615ZM12.875 6.40384L11.3462 6.40384L11.3462 7.40384L12.875 7.40384V6.40384ZM14.625 3.125V4.65384H15.625V3.125H14.625ZM12.875 0.375003L11.3462 0.375L11.3462 1.375L12.875 1.375L12.875 0.375003ZM15.625 3.125C15.625 1.60622 14.3938 0.375007 12.875 0.375003L12.875 1.375C13.8415 1.37501 14.625 2.15851 14.625 3.125H15.625ZM9.59615 3.125C9.59615 2.1585 10.3797 1.375 11.3462 1.375L11.3462 0.375C9.82738 0.374997 8.59615 1.60621 8.59615 3.125H9.59615ZM8.59615 4.65384C8.59615 6.17263 9.82737 7.40384 11.3462 7.40384L11.3462 6.40384C10.3797 6.40384 9.59615 5.62034 9.59615 4.65384L8.59615 4.65384ZM12.875 7.40384C14.3938 7.40384 15.625 6.17262 15.625 4.65384H14.625C14.625 5.62034 13.8415 6.40384 12.875 6.40384V7.40384ZM0.375 11.3462L0.375 12.875L1.375 12.875L1.375 11.3462H0.375ZM4.65384 14.625H3.125V15.625H4.65384V14.625ZM6.40384 11.3462V12.875H7.40384V11.3462H6.40384ZM4.65385 8.59616L3.12501 8.59615L3.12501 9.59615L4.65385 9.59616L4.65385 8.59616ZM7.40384 11.3462C7.40384 9.82737 6.17263 8.59616 4.65385 8.59616L4.65385 9.59616C5.62035 9.59616 6.40384 10.3797 6.40384 11.3462H7.40384ZM1.375 11.3462C1.375 10.3797 2.15851 9.59615 3.12501 9.59615L3.12501 8.59615C1.60622 8.59615 0.375 9.82737 0.375 11.3462H1.375ZM0.375 12.875C0.375 14.3938 1.60621 15.625 3.125 15.625V14.625C2.1585 14.625 1.375 13.8415 1.375 12.875L0.375 12.875ZM4.65384 15.625C6.17263 15.625 7.40384 14.3938 7.40384 12.875H6.40384C6.40384 13.8415 5.62034 14.625 4.65384 14.625V15.625ZM8.59615 11.3462V12.875H9.59615V11.3462H8.59615ZM12.875 14.625H11.3462V15.625H12.875V14.625ZM14.625 11.3462V12.875H15.625V11.3462H14.625ZM12.875 8.59616L11.3462 8.59615L11.3462 9.59615L12.875 9.59616L12.875 8.59616ZM15.625 11.3462C15.625 9.82737 14.3938 8.59616 12.875 8.59616L12.875 9.59616C13.8415 9.59616 14.625 10.3797 14.625 11.3462H15.625ZM9.59615 11.3462C9.59615 10.3797 10.3797 9.59615 11.3462 9.59615L11.3462 8.59615C9.82738 8.59615 8.59615 9.82737 8.59615 11.3462H9.59615ZM8.59615 12.875C8.59615 14.3938 9.82737 15.625 11.3462 15.625L11.3462 14.625C10.3797 14.625 9.59615 13.8415 9.59615 12.875L8.59615 12.875ZM12.875 15.625C14.3938 15.625 15.625 14.3938 15.625 12.875H14.625C14.625 13.8415 13.8415 14.625 12.875 14.625V15.625Z" fill="#9BB4CC"/>
</svg>
