<svg width="24" height="24" viewBox="0 0 24 24" fill="none" xmlns="http://www.w3.org/2000/svg">
<path d="M4.875 7.125H5.375H4.875ZM4.875 8.65384L4.375 8.65384L4.875 8.65384ZM8.65384 10.9038V10.4038H8.65384L8.65384 10.9038ZM7.125 10.9038V11.4038L7.125 11.4038L7.125 10.9038ZM10.9038 7.125H10.4038H10.9038ZM10.9038 8.65384H11.4038H10.9038ZM8.65385 4.875L8.65385 4.375L8.65385 4.875ZM7.12501 4.875L7.12501 4.375L7.12501 4.875ZM13.0962 7.125H12.5962H13.0962ZM13.0962 8.65384H13.5962H13.0962ZM16.875 10.9038V10.4038V10.9038ZM15.3462 10.9038L15.3462 11.4038L15.3462 11.4038V10.9038ZM19.125 7.125H18.625H19.125ZM19.125 8.65384H19.625H19.125ZM16.875 4.875L16.875 4.375L16.875 4.875ZM15.3462 4.875L15.3462 5.375L15.3462 4.875ZM4.875 15.3462H5.375H4.875ZM4.875 16.875L4.375 16.875L4.875 16.875ZM8.65384 19.125V18.625V19.125ZM7.125 19.125V19.625V19.125ZM10.9038 15.3462H10.4038H10.9038ZM10.9038 16.875H11.4038H10.9038ZM8.65385 13.0962L8.65385 13.5962L8.65385 13.0962ZM7.12501 13.0962L7.12501 12.5962H7.12501L7.12501 13.0962ZM13.0962 15.3462H12.5962H13.0962ZM13.0962 16.875H13.5962H13.0962ZM16.875 19.125V18.625V19.125ZM15.3462 19.125L15.3462 19.625H15.3462V19.125ZM19.125 15.3462H18.625H19.125ZM19.125 16.875H19.625H19.125ZM16.875 13.0962L16.875 13.5962L16.875 13.0962ZM15.3462 13.0962L15.3462 12.5962L15.3462 13.0962ZM4.375 7.125L4.375 8.65384L5.375 8.65384L5.375 7.125H4.375ZM8.65384 10.4038L7.125 10.4038L7.125 11.4038L8.65385 11.4038L8.65384 10.4038ZM10.4038 7.125V8.65384H11.4038V7.125H10.4038ZM8.65385 4.375L7.12501 4.375L7.12501 5.375L8.65385 5.375L8.65385 4.375ZM11.4038 7.125C11.4038 5.60622 10.1726 4.37501 8.65385 4.375L8.65385 5.375C9.62035 5.37501 10.4038 6.15851 10.4038 7.125H11.4038ZM5.375 7.125C5.375 6.1585 6.15851 5.375 7.12501 5.375L7.12501 4.375C5.60622 4.375 4.375 5.60621 4.375 7.125H5.375ZM4.375 8.65384C4.375 10.1726 5.60621 11.4038 7.125 11.4038V10.4038C6.1585 10.4038 5.375 9.62034 5.375 8.65384L4.375 8.65384ZM8.65384 11.4038C10.1726 11.4038 11.4038 10.1726 11.4038 8.65384H10.4038C10.4038 9.62034 9.62034 10.4038 8.65384 10.4038V11.4038ZM12.5962 7.125V8.65384H13.5962V7.125H12.5962ZM16.875 10.4038L15.3462 10.4038L15.3462 11.4038L16.875 11.4038V10.4038ZM18.625 7.125V8.65384H19.625V7.125H18.625ZM16.875 4.375L15.3462 4.375L15.3462 5.375L16.875 5.375L16.875 4.375ZM19.625 7.125C19.625 5.60622 18.3938 4.37501 16.875 4.375L16.875 5.375C17.8415 5.37501 18.625 6.15851 18.625 7.125H19.625ZM13.5962 7.125C13.5962 6.1585 14.3797 5.375 15.3462 5.375L15.3462 4.375C13.8274 4.375 12.5962 5.60621 12.5962 7.125H13.5962ZM12.5962 8.65384C12.5962 10.1726 13.8274 11.4038 15.3462 11.4038L15.3462 10.4038C14.3797 10.4038 13.5962 9.62034 13.5962 8.65384L12.5962 8.65384ZM16.875 11.4038C18.3938 11.4038 19.625 10.1726 19.625 8.65384H18.625C18.625 9.62034 17.8415 10.4038 16.875 10.4038V11.4038ZM4.375 15.3462L4.375 16.875L5.375 16.875L5.375 15.3462H4.375ZM8.65384 18.625H7.125V19.625H8.65384V18.625ZM10.4038 15.3462V16.875H11.4038V15.3462H10.4038ZM8.65385 12.5962L7.12501 12.5962L7.12501 13.5962L8.65385 13.5962L8.65385 12.5962ZM11.4038 15.3462C11.4038 13.8274 10.1726 12.5962 8.65385 12.5962L8.65385 13.5962C9.62035 13.5962 10.4038 14.3797 10.4038 15.3462H11.4038ZM5.375 15.3462C5.375 14.3797 6.15851 13.5962 7.12501 13.5962L7.12501 12.5962C5.60622 12.5961 4.375 13.8274 4.375 15.3462H5.375ZM4.375 16.875C4.375 18.3938 5.60621 19.625 7.125 19.625V18.625C6.1585 18.625 5.375 17.8415 5.375 16.875L4.375 16.875ZM8.65384 19.625C10.1726 19.625 11.4038 18.3938 11.4038 16.875H10.4038C10.4038 17.8415 9.62034 18.625 8.65384 18.625V19.625ZM12.5962 15.3462V16.875H13.5962V15.3462H12.5962ZM16.875 18.625H15.3462V19.625H16.875V18.625ZM18.625 15.3462V16.875H19.625V15.3462H18.625ZM16.875 12.5962L15.3462 12.5962L15.3462 13.5962L16.875 13.5962L16.875 12.5962ZM19.625 15.3462C19.625 13.8274 18.3938 12.5962 16.875 12.5962L16.875 13.5962C17.8415 13.5962 18.625 14.3797 18.625 15.3462H19.625ZM13.5962 15.3462C13.5962 14.3797 14.3797 13.5962 15.3462 13.5962L15.3462 12.5962C13.8274 12.5961 12.5962 13.8274 12.5962 15.3462H13.5962ZM12.5962 16.875C12.5962 18.3938 13.8274 19.625 15.3462 19.625L15.3462 18.625C14.3797 18.625 13.5962 17.8415 13.5962 16.875L12.5962 16.875ZM16.875 19.625C18.3938 19.625 19.625 18.3938 19.625 16.875H18.625C18.625 17.8415 17.8415 18.625 16.875 18.625V19.625Z" fill="#9BB4CC"/>
</svg>
