<svg width="16" height="16" viewBox="0 0 16 16" fill="none" xmlns="http://www.w3.org/2000/svg">
<path d="M13.8895 15.125C13.8927 15.125 13.896 15.125 13.8992 15.125M13.8992 15.125C14.5758 15.1196 15.125 14.5589 15.125 13.8703L15.125 5.26104C15.125 4.56916 14.5729 4.00687 13.8918 4.00687L12.5902 4.00687C11.9091 4.00687 11.357 3.44599 11.357 2.75412C11.357 1.71631 10.5288 0.875 9.50722 0.875C8.48562 0.875 7.65746 1.71631 7.65746 2.75412C7.65746 3.44599 7.10535 4.00687 6.42428 4.00687L5.19111 4.00687C4.51005 4.00687 3.95794 4.56784 3.95794 5.25972L3.95794 6.43397C3.95794 7.12584 3.40583 7.68681 2.72476 7.68681C1.70317 7.68681 0.875001 8.52812 0.875001 9.56593C0.875001 10.6037 1.70317 11.4451 2.72476 11.4451C3.40582 11.4451 3.95794 12.0059 3.95794 12.6978L3.95793 13.8723C3.95793 14.5641 4.51192 15.125 5.19298 15.125L7.65747 15.125L7.65747 13.8722C7.65747 12.8344 8.48563 11.9931 9.50723 11.9931C10.5288 11.9931 11.357 12.8344 11.357 13.8722L11.357 15.125L13.8992 15.125Z" stroke="#9BB4CC" stroke-linecap="round" stroke-linejoin="round"/>
</svg>
