<svg width="24" height="24" viewBox="0 0 24 24" fill="none" xmlns="http://www.w3.org/2000/svg">
<path d="M17.1948 13.7003C18.7572 10.0365 19.9839 8.84496 23.7573 7.32684C23.904 7.26788 24 7.12574 24 6.96773C24 6.80971 23.904 6.66757 23.7573 6.60861C19.9839 5.09045 18.7572 3.89893 17.1948 0.235123C17.1339 0.0925938 16.9937 0 16.8387 0C16.6837 0 16.5435 0.0926325 16.4826 0.235123C14.9203 3.89893 13.6935 5.09049 9.92013 6.60861C9.77346 6.66757 9.67742 6.80971 9.67742 6.96773C9.67742 7.12574 9.77342 7.26788 9.92013 7.32684C13.6935 8.845 14.9203 10.0365 16.4826 13.7003C16.5435 13.8429 16.6837 13.9355 16.8387 13.9355C16.9937 13.9355 17.1339 13.8428 17.1948 13.7003ZM6.16405 18.5353C7.40474 15.5398 8.37852 14.566 11.374 13.3253C11.5186 13.2656 11.6129 13.1242 11.6129 12.9677C11.6129 12.8112 11.5186 12.6698 11.374 12.6101C8.37852 11.3694 7.40474 10.3956 6.16405 7.40015C6.10413 7.25538 5.96295 7.16124 5.80645 7.16124C5.64995 7.16124 5.50877 7.25538 5.44885 7.40015C4.20817 10.3956 3.23439 11.3694 0.238916 12.6101C0.0943355 12.6698 0 12.8112 0 12.9677C0 13.1242 0.0943355 13.2656 0.238916 13.3253C3.23439 14.566 4.20817 15.5398 5.44885 18.5353C5.50877 18.68 5.64995 18.7742 5.80645 18.7742C5.96295 18.7742 6.10413 18.68 6.16405 18.5353ZM15.0673 23.7611C16.0312 21.4332 16.788 20.6764 19.1159 19.7124C19.2603 19.6527 19.3548 19.5113 19.3548 19.3548C19.3548 19.1983 19.2603 19.057 19.1159 18.9972C16.788 18.0333 16.0312 17.2765 15.0673 14.9486C15.0075 14.8042 14.8662 14.7096 14.7097 14.7096C14.5532 14.7096 14.4118 14.8041 14.3521 14.9486C13.3881 17.2765 12.6313 18.0333 10.3034 18.9972C10.1589 19.057 10.0645 19.1983 10.0645 19.3548C10.0645 19.5113 10.1589 19.6527 10.3034 19.7124C12.6313 20.6764 13.3881 21.4332 14.3521 23.7611C14.4118 23.9055 14.5532 24 14.7097 24C14.8662 24 15.0075 23.9055 15.0673 23.7611Z" fill="#04B0B0"/>
</svg>
