<svg width="14" height="14" viewBox="0 0 14 14" fill="none" xmlns="http://www.w3.org/2000/svg">
<path d="M7 12.9375C10.2792 12.9375 12.9375 10.2792 12.9375 7C12.9375 3.72081 10.2792 1.0625 7 1.0625M7 12.9375C3.72081 12.9375 1.0625 10.2792 1.0625 7C1.0625 3.72081 3.72081 1.0625 7 1.0625M7 12.9375C5.48653 12.9375 4.25962 10.2792 4.25962 7C4.25962 3.72081 5.48653 1.0625 7 1.0625M7 12.9375C8.51347 12.9375 9.74039 10.2792 9.74039 7C9.74039 3.72081 8.51347 1.0625 7 1.0625M1.0625 6.54327C1.0625 7.30001 3.72081 7.91346 7 7.91346C10.2792 7.91346 12.9375 7.30001 12.9375 6.54327" stroke="#1F2B38" stroke-width="0.833333" stroke-linecap="round" stroke-linejoin="round"/>
</svg>
