<svg width="16" height="16" viewBox="0 0 16 16" fill="none" xmlns="http://www.w3.org/2000/svg">
<path fill-rule="evenodd" clip-rule="evenodd" d="M6.72447 0.69528C7.49276 0.268241 8.43208 0.26824 9.20037 0.69528L9.20381 0.697191L13.7797 3.28794C14.542 3.72754 15.0178 4.53095 15.0249 5.40715L15.0249 5.41121L15.0249 10.5928C15.0178 11.4691 14.542 12.2724 13.7796 12.712L13.7762 12.714L9.20038 15.3047C8.43209 15.7318 7.49276 15.7318 6.72447 15.3047L6.72103 15.3028L2.14861 12.714L2.1452 12.712C1.38281 12.2724 0.907038 11.4691 0.899935 10.5928L0.899902 10.5888L0.899919 5.40715C0.907021 4.53094 1.38281 3.72756 2.1452 3.28795L2.14861 3.28599L6.72447 0.69528ZM7.21189 1.56845L2.64314 4.15517C2.18384 4.42074 1.90475 4.89943 1.89992 5.41338V10.5866C1.90475 11.1006 2.18385 11.5793 2.64317 11.8449L7.21187 14.4315C7.67721 14.6895 8.24756 14.6895 8.71291 14.4316L13.2818 11.8448C13.741 11.5792 14.0201 11.1005 14.0249 10.5866V5.41341C14.0201 4.89945 13.741 4.42075 13.2817 4.15518L8.71294 1.56844C8.24759 1.31052 7.67724 1.31052 7.21189 1.56845ZM7.96242 5.21152C6.42741 5.21152 5.18117 6.45892 5.18117 7.99998C5.18117 9.54104 6.42741 10.7884 7.96242 10.7884C9.49743 10.7884 10.7437 9.54104 10.7437 7.99998C10.7437 6.45892 9.49743 5.21152 7.96242 5.21152ZM4.18117 7.99998C4.18117 5.90871 5.87306 4.21152 7.96242 4.21152C10.0518 4.21152 11.7437 5.90871 11.7437 7.99998C11.7437 10.0913 10.0518 11.7884 7.96242 11.7884C5.87306 11.7884 4.18117 10.0913 4.18117 7.99998Z" fill="#F5F5F5"/>
</svg>
