<svg width="32" height="32" viewBox="0 0 32 32" fill="none" xmlns="http://www.w3.org/2000/svg">
<path fill-rule="evenodd" clip-rule="evenodd" d="M14.3803 6.40605C15.3543 5.86465 16.5455 5.86465 17.5196 6.40605L17.523 6.40796L23.623 9.86164C24.5892 10.4188 25.1909 11.4361 25.1999 12.5442L25.2 12.5483L25.1999 19.4558C25.191 20.5639 24.5892 21.5812 23.623 22.1383L23.6196 22.1403L17.5196 25.594C16.5455 26.1354 15.3543 26.1354 14.3803 25.594L14.3769 25.592L8.28031 22.1403L8.27689 22.1383C7.31064 21.5812 6.70894 20.5639 6.69995 19.4558L6.69992 19.4517L6.69994 12.5442C6.70892 11.4361 7.31064 10.4188 8.2769 9.86165L8.2803 9.85969L14.3803 6.40605ZM14.8677 7.27921L8.77479 10.7289C8.11166 11.112 7.70667 11.8046 7.69994 12.5504V19.4496C7.70667 20.1954 8.11168 20.888 8.77483 21.2711C8.77536 21.2714 8.77589 21.2717 8.77642 21.272L14.8661 24.7199C14.8667 24.7202 14.8672 24.7205 14.8678 24.7208C15.5389 25.0931 16.361 25.0931 17.0321 24.7208C17.0326 24.7205 17.0332 24.7202 17.0337 24.7199L23.1235 21.272C23.124 21.2717 23.1245 21.2714 23.1251 21.2711C23.7882 20.888 24.1932 20.1955 24.1999 19.4497V12.5503C24.1932 11.8045 23.7882 11.112 23.1251 10.7289L17.0321 7.27921C16.361 6.90693 15.5388 6.90693 14.8677 7.27921ZM15.9499 12.1154C13.8109 12.1154 12.0749 13.8535 12.0749 16C12.0749 18.1464 13.8109 19.8846 15.9499 19.8846C18.089 19.8846 19.8249 18.1464 19.8249 16C19.8249 13.8535 18.089 12.1154 15.9499 12.1154ZM11.0749 16C11.0749 13.3033 13.2565 11.1154 15.9499 11.1154C18.6434 11.1154 20.8249 13.3033 20.8249 16C20.8249 18.6966 18.6434 20.8846 15.9499 20.8846C13.2565 20.8846 11.0749 18.6966 11.0749 16Z" fill="#038C8C"/>
</svg>
