<svg width="36" height="36" viewBox="0 0 36 36" fill="none" xmlns="http://www.w3.org/2000/svg">
<rect width="36" height="36" rx="4" fill="#024954"/>
<path fill-rule="evenodd" clip-rule="evenodd" d="M17.9993 10.125C16.1221 10.125 14.6003 11.6468 14.6003 13.524C14.6003 15.4013 16.1221 16.9231 17.9993 16.9231C19.8766 16.9231 21.3984 15.4013 21.3984 13.524C21.3984 11.6468 19.8766 10.125 17.9993 10.125ZM13.7253 13.524C13.7253 11.1636 15.6388 9.25 17.9993 9.25C20.3598 9.25 22.2734 11.1636 22.2734 13.524C22.2734 15.8845 20.3598 17.7981 17.9993 17.7981C15.6388 17.7981 13.7253 15.8845 13.7253 13.524ZM13.0087 20.3558C12.2663 20.3558 11.6144 20.7207 11.3399 21.3319C11.0761 21.9194 10.8285 22.6366 10.7684 23.3367C10.7321 23.7591 10.908 24.133 11.2245 24.3296C12.1693 24.9165 14.2786 25.875 17.9993 25.875C21.7201 25.875 23.8294 24.9165 24.7741 24.3296C25.0907 24.133 25.2665 23.7591 25.2303 23.3367C25.1702 22.6366 24.9226 21.9194 24.6587 21.3319C24.3843 20.7207 23.7323 20.3558 22.99 20.3558H13.0087ZM10.5417 20.9734C10.9858 19.9846 11.9971 19.4808 13.0087 19.4808H22.99C24.0016 19.4808 25.0129 19.9846 25.4569 20.9735C25.7403 21.6045 26.0301 22.4236 26.1021 23.2618C26.1625 23.9657 25.8698 24.679 25.2358 25.0729C24.1492 25.7479 21.8793 26.75 17.9993 26.75C14.1193 26.75 11.8495 25.7479 10.7628 25.0729C10.1288 24.679 9.83617 23.9657 9.89659 23.2618C9.96853 22.4236 10.2583 21.6045 10.5417 20.9734Z" fill="#DCEDFD"/>
</svg>
