<svg width="24" height="24" viewBox="0 0 24 24" fill="none" xmlns="http://www.w3.org/2000/svg">
<rect width="24" height="24" rx="4" fill="#3B5166"/>
<path d="M14.1922 9.44231C14.1922 10.6531 13.2106 11.6346 11.9998 11.6346C10.7891 11.6346 9.80754 10.6531 9.80754 9.44231C9.80754 8.23153 10.7891 7.25 11.9998 7.25C13.2106 7.25 14.1922 8.23153 14.1922 9.44231Z" stroke="#BCD4EB"/>
<path d="M11.9998 16.75C14.1715 16.75 15.4227 16.1898 16.0031 15.8293C16.2747 15.6606 16.4085 15.3499 16.3809 15.0281C16.3432 14.5886 16.1896 14.1497 16.0333 13.8015C15.828 13.3444 15.3528 13.0962 14.8517 13.0962H9.14803C8.64691 13.0962 8.17171 13.3444 7.96643 13.8015C7.81007 14.1497 7.65651 14.5886 7.61879 15.0281C7.59117 15.3499 7.72503 15.6606 7.99662 15.8293C8.57702 16.1898 9.8282 16.75 11.9998 16.75Z" stroke="#BCD4EB"/>
</svg>
