<svg width="24" height="24" viewBox="0 0 24 24" fill="none" xmlns="http://www.w3.org/2000/svg">
<path d="M17.8895 19.125C17.8927 19.125 17.896 19.125 17.8992 19.125M17.8992 19.125C18.5758 19.1196 19.125 18.5589 19.125 17.8703L19.125 9.26104C19.125 8.56916 18.5729 8.00687 17.8918 8.00687L16.5902 8.00687C15.9091 8.00687 15.357 7.44599 15.357 6.75412C15.357 5.71631 14.5288 4.875 13.5072 4.875C12.4856 4.875 11.6575 5.71631 11.6575 6.75412C11.6575 7.44599 11.1053 8.00687 10.4243 8.00687L9.19111 8.00687C8.51005 8.00687 7.95794 8.56784 7.95794 9.25972L7.95794 10.434C7.95794 11.1258 7.40583 11.6868 6.72476 11.6868C5.70317 11.6868 4.875 12.5281 4.875 13.5659C4.875 14.6037 5.70317 15.4451 6.72476 15.4451C7.40582 15.4451 7.95794 16.0059 7.95794 16.6978L7.95793 17.8723C7.95793 18.5641 8.51192 19.125 9.19298 19.125L11.6575 19.125L11.6575 17.8722C11.6575 16.8344 12.4856 15.9931 13.5072 15.9931C14.5288 15.9931 15.357 16.8344 15.357 17.8722L15.357 19.125L17.8992 19.125Z" stroke="#9BB4CC" stroke-linecap="round" stroke-linejoin="round"/>
</svg>
