<svg width="96" height="30" viewBox="0 0 96 30" fill="none" xmlns="http://www.w3.org/2000/svg">
<g clip-path="url(#clip0_417_13741)">
<g clip-path="url(#clip1_417_13741)">
<path d="M17.7351 30C12.9073 30 9.65822 26.2099 9.05536 25.4489C5.43816 20.8854 8.08682 15.8425 8.65509 14.8789C8.70204 14.7999 8.78604 14.7529 8.87746 14.7529C8.90217 14.7529 8.92441 14.7554 8.94911 14.7628C9.05289 14.7925 9.12454 14.8789 9.13442 14.9852C9.18384 15.4843 9.45809 17.2583 10.9183 19.099C12.6577 21.293 15.2298 22.5531 17.9748 22.5531C20.2232 22.5531 22.4469 21.7304 24.5816 20.1046C29.1575 16.6208 28.987 11.5311 28.9845 11.4792L29.1105 11.4594C29.1402 11.5657 29.8147 14.118 29.6072 17.325C29.4144 20.3295 28.3841 24.5199 24.5668 27.423C22.3209 29.1328 20.0231 30 17.7376 30H17.7351ZM7.70632 18.9285C7.46666 20.6976 7.66185 23.0078 9.38891 25.187C9.96954 25.9183 13.0951 29.5676 17.7401 29.5676C19.9366 29.5676 22.1479 28.7325 24.3099 27.087C27.68 24.5223 28.8042 20.9051 29.1155 18.0761C28.6016 20.7001 27.2723 23.9812 23.9911 26.4767C21.9972 27.9938 19.9366 28.7622 17.8661 28.7622C16.9791 28.7622 16.0748 28.6189 15.1829 28.3397C12.8529 27.6058 10.9504 25.99 9.9473 24.7249C8.22271 22.5507 7.74338 20.4826 7.70632 18.9285ZM8.20294 17.7228C7.9781 19.482 8.24742 21.8984 10.2784 24.4606C11.2445 25.6787 13.0728 27.2303 15.3089 27.9345C16.1563 28.2013 17.0162 28.3372 17.8612 28.3372C19.8427 28.3372 21.8168 27.5984 23.7342 26.1407C26.877 23.749 28.1815 20.5889 28.6905 17.9575C28.0382 20.2529 26.6571 23.0028 23.7712 25.1993C22.017 26.5335 20.1194 27.2105 18.1329 27.2105C17.3126 27.2105 16.4874 27.0944 15.6721 26.8646C13.4583 26.2395 11.5755 24.8386 10.6935 23.7243C8.77616 21.3054 8.27707 19.141 8.20294 17.7228ZM8.67486 18.1675C8.83052 19.5561 9.40621 21.4166 11.027 23.4624C11.8671 24.5223 13.6633 25.859 15.7882 26.4569C16.5615 26.6744 17.3497 26.7856 18.1305 26.7856C20.028 26.7856 21.8391 26.1382 23.5167 24.8608C26.5212 22.5729 27.8455 19.6426 28.4187 17.2805C27.675 19.2868 26.1876 21.8218 23.2153 24.0825C21.5698 25.3352 19.8155 25.9702 17.9995 25.9702C15.1977 25.9702 12.7739 24.4136 11.5484 23.0794C9.804 21.1819 9.0183 19.4597 8.67733 18.1675H8.67486ZM8.99359 17.5918C9.2629 18.9508 10.0066 20.7767 11.8597 22.7928C12.2772 23.2474 13.8239 24.7719 16.2305 25.3476C16.8234 25.4884 17.4164 25.5625 17.9995 25.5625C19.7043 25.5625 21.3721 24.9522 22.9559 23.7465C25.2883 21.9725 26.6719 20.028 27.4947 18.3528C26.4841 20.112 25.0461 21.6266 23.2054 22.8669C21.508 24.0109 19.7216 24.5915 17.8908 24.5915C14.9753 24.5915 12.6923 23.1091 11.6225 21.8391C10.1227 20.0577 9.36667 18.6271 8.99359 17.5918ZM9.36173 17.3547C9.69776 18.3207 10.4167 19.7464 11.9462 21.5648C12.9567 22.7656 15.1186 24.1665 17.8859 24.1665C19.6327 24.1665 21.3425 23.6106 22.9682 22.5161C24.7941 21.2856 26.2099 19.7785 27.1957 18.0193C26.5558 18.9236 25.7676 19.7365 24.8386 20.4431C22.6248 22.1282 20.3146 22.9831 17.9748 22.9831C15.1038 22.9831 12.4107 21.6637 10.5872 19.3634C10.0931 18.7383 9.67799 18.0588 9.3642 17.3547H9.36173Z" fill="url(#paint0_linear_417_13741)"/>
<path d="M18.2985 20.999C18.1824 20.999 18.0811 20.9175 18.0514 20.8038C18.0242 20.7001 18.0638 20.5938 18.1502 20.532C18.5579 20.2405 19.9564 19.1163 20.8211 16.9297C22.4296 12.8653 21.2511 7.27146 14.8592 4.59562C13.4583 4.00758 12.003 3.71109 10.5329 3.71109C7.39007 3.71109 5.21086 5.08236 5.18862 5.09471L5.10956 4.99588C5.18862 4.91682 7.05652 3.0588 9.9399 1.6307C12.1339 0.548509 14.3379 0 16.4948 0C18.1157 0 19.7019 0.318728 21.2066 0.948773C23.8108 2.03838 25.7083 3.59496 26.8523 5.57651C29.2662 9.75704 27.6083 14.4663 27.2525 15.3681C25.1302 20.7297 19.4672 21.0015 18.3553 21.0015H18.2985V20.999ZM14.3947 1.67518C16.1959 1.67518 17.9748 2.03591 19.6747 2.74996C21.7081 3.60237 23.2425 4.90694 24.2357 6.62906C24.6459 7.33817 24.9572 8.11399 25.1672 8.93181C25.733 11.1604 25.4612 13.4928 24.9374 14.8122C23.8009 17.6833 22.1776 19.1978 20.9842 19.9712C22.6199 19.2868 24.5792 17.8439 25.7824 14.8048C26.3532 13.3594 26.7831 10.9998 26.2766 8.70944C25.6292 5.79641 23.6897 3.64191 20.5098 2.31016C18.9137 1.64059 17.2459 1.30209 15.5535 1.30209C14.0241 1.30209 12.4749 1.57388 10.9307 2.1125C12.0771 1.82342 13.2359 1.67518 14.3947 1.67518ZM15.5312 0.87465C17.2904 0.87465 19.0224 1.2255 20.6729 1.91731C22.9831 2.88585 24.678 4.2843 25.7157 6.07808C26.1605 6.84649 26.4866 7.6989 26.6917 8.61308C27.2204 10.9974 26.7732 13.4533 26.1778 14.9555C25.1573 17.535 23.6057 18.9853 22.2789 19.7933C23.9318 19.1163 25.8343 17.792 26.8572 15.2075C27.2007 14.3403 28.7968 9.80646 26.4767 5.78653C25.3797 3.88404 23.5513 2.38676 21.041 1.33668C19.5907 0.728875 18.0613 0.42003 16.4948 0.42003C14.6344 0.42003 12.7343 0.84253 10.8368 1.67765C12.3934 1.14396 13.9697 0.872179 15.5312 0.872179V0.87465ZM11.8943 2.95009C13.9252 2.95009 15.9587 3.4393 17.9378 4.40537C19.7785 5.30226 21.1745 6.55988 22.0886 8.14611C23.5464 10.6712 23.4031 13.3891 22.8398 14.9506C22.0466 17.1422 21.1868 18.5085 20.4777 19.351C21.5204 18.4393 22.7286 16.8827 23.5489 14.2687C23.7342 13.6806 24.2802 11.578 23.576 9.20606C22.8941 6.90825 21.2955 5.21825 18.8248 4.183C16.816 3.34294 14.7974 2.9155 12.8208 2.9155C12.4848 2.9155 12.1512 2.92785 11.8202 2.95256C11.8449 2.95256 11.8696 2.95256 11.8943 2.95256V2.95009ZM12.8183 2.48806C14.8518 2.48806 16.9272 2.92538 18.9878 3.78768C20.8953 4.58574 22.3209 5.789 23.2301 7.3604C24.6311 9.78669 24.4952 12.6651 23.9516 14.3922C23.1807 16.8506 22.0812 18.3924 21.1349 19.3362C22.2591 18.506 23.5835 17.0804 24.5446 14.6541C25.0412 13.3965 25.3006 11.1728 24.7571 9.03311C24.2777 7.14545 22.9781 4.59068 19.5116 3.13787C17.8661 2.44853 16.1539 2.10015 14.4219 2.10015C13.1173 2.10015 11.7979 2.29534 10.4909 2.68325C11.2519 2.5523 12.0326 2.48559 12.8208 2.48559L12.8183 2.48806ZM11.751 3.37259C12.8505 3.47389 13.9475 3.75309 15.0223 4.20277C17.5894 5.27755 19.4845 6.85143 20.6531 8.87745C22.0886 11.3655 22.2937 14.3551 21.2115 17.0853C20.9175 17.8266 20.537 18.5258 20.0849 19.1484C20.7544 18.3751 21.6291 17.0384 22.437 14.8048C23.3561 12.2649 22.8966 7.29864 17.7475 4.78587C15.8253 3.84945 13.8536 3.37259 11.8869 3.37259C11.8399 3.37259 11.793 3.37259 11.746 3.37259H11.751Z" fill="url(#paint1_linear_417_13741)"/>
<path d="M11.6817 29.0463C11.5755 29.0166 9.0232 28.3248 6.3523 26.5434C3.84695 24.8756 0.733785 21.886 0.125977 17.1298C-0.232283 14.3304 0.16798 11.9066 1.30947 9.92751C3.72341 5.74451 8.63034 4.82786 9.589 4.68455C10.0362 4.61784 10.4834 4.58572 10.9183 4.58572C15.8425 4.58572 18.4665 8.78355 18.9433 9.62361C19.0001 9.72491 18.9828 9.85339 18.8988 9.93493C18.8494 9.98187 18.7877 10.009 18.7185 10.009C18.6814 10.009 18.6468 10.0016 18.6122 9.98681C18.296 9.84351 17.1347 9.37653 15.4842 9.37653C15.0444 9.37653 14.5997 9.40865 14.1574 9.47536C9.83361 10.1153 5.57895 13.9326 6.45607 20.8038C7.18495 26.5113 11.6793 28.9054 11.7237 28.9277L11.6768 29.0463H11.6817ZM10.9158 5.0107C10.5032 5.0107 10.0782 5.04282 9.65324 5.10458C8.72917 5.24048 4.00508 6.12501 1.68503 10.1449C0.58801 12.0474 0.205042 14.3774 0.548478 17.0754C1.08463 21.2782 3.65423 24.0578 5.94957 25.7429C3.93342 23.9862 1.75668 21.1942 1.23535 17.1051C0.919092 14.622 1.28229 12.4526 2.31754 10.6589C2.76228 9.89045 3.3355 9.17887 4.02484 8.54636C5.82603 6.89589 8.17572 6.05583 9.77431 5.81863C10.3525 5.73216 10.9257 5.69016 11.4791 5.69016C13.4088 5.69016 14.8913 6.21643 15.9265 6.7847C14.4193 5.60615 12.7368 5.0107 10.9158 5.0107ZM12.2401 7.24179C11.6274 7.24179 10.9825 7.29121 10.3302 7.38757C8.99355 7.58523 6.9354 8.4747 5.35658 10.014C3.9606 11.3729 2.39908 13.777 2.87347 17.5029C3.35032 21.2486 5.22563 23.8601 6.98729 25.5378C5.62343 23.8923 4.17062 21.335 3.69623 17.6314C3.43433 15.5806 3.76294 13.7448 4.66971 12.171C6.07063 9.74468 8.63034 8.42529 10.3969 8.02997C11.4742 7.7903 12.5094 7.66677 13.4805 7.66677C14.4515 7.66677 15.2866 7.77795 16.0896 7.99785C14.9506 7.49628 13.6583 7.24179 12.2377 7.24179H12.2401ZM11.4767 6.11513C10.9479 6.11513 10.3969 6.15713 9.83855 6.23866C8.30173 6.46597 6.04346 7.27391 4.31392 8.85767C2.11494 10.8738 1.22053 13.6312 1.65538 17.0507C2.15447 20.9669 4.2398 23.6773 6.26335 25.4365C4.603 23.7243 2.91053 21.1522 2.45344 17.5548C2.17424 15.3681 2.53744 13.3866 3.53069 11.6645C3.94084 10.9554 4.45475 10.2957 5.06009 9.70762C6.70809 8.10162 8.8626 7.17508 10.2685 6.96754C10.943 6.86871 11.6076 6.81682 12.2451 6.81682C14.3082 6.81682 15.798 7.34557 16.7097 7.81007C15.5855 6.95519 13.8708 6.11513 11.4767 6.11513ZM13.4384 8.09668C12.5094 8.09668 11.5187 8.2128 10.4933 8.44258C9.8929 8.57601 7.7977 9.15417 6.09534 10.9504C4.44487 12.6898 3.78024 14.9185 4.1212 17.577C4.49182 20.4851 5.48506 22.6544 6.52278 24.2036C5.50483 22.4469 4.91185 20.4456 4.75866 18.2293C4.61535 16.1884 5.00821 14.3502 5.92239 12.7639C7.38014 10.2388 9.80643 9.00345 11.4396 8.7119C12.5762 8.5093 13.6361 8.40552 14.5849 8.40552C15.2545 8.40552 15.8722 8.45494 16.4305 8.55624C15.5312 8.24987 14.5281 8.09421 13.4384 8.09421V8.09668ZM14.5701 8.83544C13.6435 8.83544 12.6132 8.93427 11.5137 9.13193C8.85518 9.60631 4.78337 12.4872 5.18116 18.2021C5.33435 20.3986 5.93227 22.3802 6.96011 24.1122C6.4956 23.1066 6.18923 22.017 6.04098 20.8582C5.68767 18.0983 6.10275 15.6696 7.2739 13.6435C8.70941 11.1555 11.1975 9.48525 14.1031 9.05534C14.575 8.98615 15.0494 8.95156 15.5139 8.95156C15.8277 8.95156 16.139 8.96639 16.4454 8.99851C15.887 8.89226 15.2594 8.83791 14.5725 8.83791L14.5701 8.83544Z" fill="url(#paint2_linear_417_13741)"/>
<path d="M36.1003 24.4581V23.5019L45.9785 9.64834H36.1473V8.66992H47.2781V9.62611L37.4 23.4797H47.1644V24.4581H36.1028H36.1003Z" fill="#038C8C"/>
<path d="M49.3239 19.1435C49.3239 15.8079 51.3944 13.5175 54.4457 13.5175C57.2896 13.5175 59.2489 15.5189 59.2489 18.4319V19.1435H50.3715C50.4629 22.0565 52.0096 23.791 54.5816 23.791C56.5162 23.791 57.7442 22.9682 58.1766 21.3894H59.2464C58.609 23.5908 57.0376 24.7249 54.5816 24.7249C51.4191 24.7249 49.3239 22.5012 49.3239 19.1435ZM50.3937 18.2985H58.1766C58.1766 15.9858 56.6966 14.4515 54.4433 14.4515C52.1899 14.4515 50.6432 15.9636 50.3912 18.2985H50.3937Z" fill="#038C8C"/>
<path d="M67.7829 14.5182H66.9626C64.9366 14.5182 63.6172 15.9636 63.6172 17.9649V24.4581H62.5696V13.7844H63.548L63.6394 15.4966C64.0718 14.2958 65.2775 13.5175 66.8267 13.5175C67.1677 13.5175 67.4197 13.5398 67.7829 13.6287V14.5182Z" fill="#038C8C"/>
<path d="M74.7925 13.5175C77.9106 13.5175 80.2084 15.8969 80.2084 19.1212C80.2084 22.3456 77.9106 24.7249 74.7925 24.7249C71.6744 24.7249 69.3766 22.3456 69.3766 19.1212C69.3766 15.8969 71.6744 13.5175 74.7925 13.5175ZM74.7925 23.791C77.3423 23.791 79.1386 21.8564 79.1386 19.1212C79.1386 16.3861 77.3399 14.4515 74.7925 14.4515C72.2451 14.4515 70.4464 16.3861 70.4464 19.1212C70.4464 21.8564 72.2451 23.791 74.7925 23.791Z" fill="#038C8C"/>
<path d="M84.9424 18.721L93.2491 8.66992H94.5685L89.0389 15.341L94.6846 24.4581H93.4097L88.3125 16.2082L84.9449 20.2776V24.4581H83.8528V8.66992H84.9449V18.721H84.9424Z" fill="#038C8C"/>
</g>
</g>
<defs>
<linearGradient id="paint0_linear_417_13741" x1="14.9481" y1="29.8963" x2="32.1871" y2="17.5504" gradientUnits="userSpaceOnUse">
<stop offset="0.203125" stop-color="#039D9D"/>
<stop offset="1" stop-color="#171F29" stop-opacity="0"/>
</linearGradient>
<linearGradient id="paint1_linear_417_13741" x1="5.18864" y1="5.43568" x2="26.8177" y2="12.0626" gradientUnits="userSpaceOnUse">
<stop stop-color="#171F29" stop-opacity="0"/>
<stop offset="0.769517" stop-color="#039D9D"/>
</linearGradient>
<linearGradient id="paint2_linear_417_13741" x1="2.71783" y1="7.90642" x2="10.7478" y2="28.2902" gradientUnits="userSpaceOnUse">
<stop offset="0.203125" stop-color="#039D9D"/>
<stop offset="1" stop-color="#171F29" stop-opacity="0"/>
</linearGradient>
<clipPath id="clip0_417_13741">
<rect width="95.9348" height="30" fill="white"/>
</clipPath>
<clipPath id="clip1_417_13741">
<rect width="95.9348" height="30" fill="white"/>
</clipPath>
</defs>
</svg>
