<svg width="30" height="30" viewBox="0 0 30 30" fill="none" xmlns="http://www.w3.org/2000/svg">
<path d="M17.8668 29.7049C13.1128 29.7049 9.91445 25.9728 9.32146 25.2246C5.75974 20.7305 8.36763 15.7658 8.92781 14.8158C8.97323 14.7388 9.0565 14.6909 9.14608 14.6909C9.17006 14.6909 9.19277 14.6947 9.21548 14.701C9.31641 14.73 9.38833 14.8158 9.39842 14.9192C9.44636 15.4113 9.71636 17.1562 11.1547 18.9705C12.868 21.1318 15.4002 22.372 18.1027 22.3707C20.317 22.3707 22.5047 21.5595 24.6067 19.9597C29.1134 16.5304 28.9444 11.5178 28.9418 11.4673L29.0655 11.4484C29.0945 11.5531 29.7581 14.0663 29.5563 17.2243C29.3658 20.1817 28.3514 24.3074 24.5941 27.1676C22.3824 28.8507 20.1202 29.7036 17.8693 29.7049H17.8668ZM7.99165 18.8027C7.75571 20.5451 7.94749 22.8199 9.64823 24.9647C10.2185 25.6852 13.2983 29.2784 17.8706 29.2784C20.0331 29.2784 22.2095 28.4558 24.3405 26.8345C27.66 24.3087 28.7652 20.7482 29.0718 17.9624C28.5659 20.5463 27.2562 23.7775 24.0263 26.2352C22.0644 27.7278 20.0356 28.4848 17.9955 28.4848C17.1212 28.4848 16.2317 28.3448 15.3535 28.0685C13.0598 27.3455 11.1862 25.7558 10.1983 24.508C8.50137 22.3669 8.02824 20.3306 7.99291 18.8014L7.99165 18.8027ZM8.48118 17.6155C8.25912 19.3465 8.52534 21.7273 10.5251 24.2506C11.4751 25.4492 13.2756 26.9784 15.4797 27.6723C16.3149 27.9347 17.1603 28.0685 17.9917 28.0685C19.9423 28.0685 21.8878 27.3405 23.774 25.9047C26.8676 23.5504 28.1533 20.4378 28.6542 17.8463C28.0107 20.106 26.6506 22.8136 23.8093 24.9761C22.0821 26.2895 20.2148 26.9569 18.2567 26.9569C17.4505 26.9569 16.6354 26.8421 15.8342 26.6163C13.6541 26.0018 11.8019 24.6216 10.9326 23.5252C9.04515 21.1431 8.55183 19.0134 8.47992 17.6155H8.48118ZM8.94548 18.0533C9.0994 19.4209 9.66463 21.2516 11.2607 23.2653C12.0871 24.3087 13.8572 25.6246 15.9478 26.2138C16.7099 26.4283 17.4858 26.5381 18.2529 26.5381C20.1202 26.5381 21.9042 25.9009 23.5557 24.6443C26.5144 22.3922 27.8189 19.5067 28.3816 17.1802C27.6499 19.1547 26.1851 21.6516 23.258 23.8784C21.638 25.1111 19.9107 25.7356 18.1229 25.7356C15.3649 25.7356 12.9778 24.2027 11.7716 22.8893C10.0558 21.022 9.28108 19.3263 8.94422 18.0533H8.94548ZM9.25837 17.4855C9.52333 18.8241 10.2551 20.6208 12.0807 22.6067C12.4908 23.0533 14.0136 24.5547 16.3843 25.1224C16.9672 25.2625 17.5539 25.3331 18.1267 25.3331C19.8048 25.3331 21.4475 24.7313 23.0069 23.5441C25.3032 21.7967 26.667 19.8814 27.4758 18.2324C26.4803 19.966 25.0647 21.456 23.2517 22.6786C21.5812 23.8053 19.8199 24.3768 18.0195 24.3768C15.1492 24.3768 12.9008 22.917 11.8473 21.6667C10.3699 19.913 9.62678 18.5049 9.25837 17.4855ZM9.62174 17.2521C9.9523 18.2034 10.6601 19.6076 12.1678 21.398C13.1633 22.5789 15.2917 23.9592 18.0157 23.9592C19.7354 23.9592 21.4184 23.4116 23.0195 22.3329C24.8161 21.1217 26.2116 19.6367 27.1818 17.9056C26.5522 18.7964 25.775 19.5963 24.8603 20.2927C22.6801 21.9518 20.4053 22.7934 18.1015 22.7934C15.2741 22.7934 12.6233 21.4951 10.8279 19.2291C10.3409 18.6147 9.93337 17.9448 9.623 17.2521H9.62174Z" fill="url(#paint0_linear_525_15159)"/>
<path d="M18.4233 20.8416C18.3084 20.8416 18.2088 20.7621 18.1798 20.6498C18.1533 20.5476 18.1924 20.4429 18.2769 20.3823C18.6781 20.0947 20.0546 18.9882 20.9075 16.8357C22.4922 12.8337 21.3302 7.32647 15.0382 4.69082C13.6592 4.11297 12.2259 3.82026 10.7787 3.82026C7.6851 3.82026 5.53772 5.16899 5.51627 5.18287L5.43805 5.08572C5.51501 5.00876 7.3558 3.17806 10.1958 1.77255C12.3521 0.705171 14.5234 0.16391 16.6481 0.16391C18.2454 0.16391 19.8061 0.478068 21.2873 1.09881C23.851 2.1725 25.7208 3.70544 26.8462 5.65474C29.2245 9.7716 27.5906 14.4083 27.2399 15.2965C25.1505 20.5754 19.5752 20.8428 18.4788 20.8428H18.4233V20.8416ZM14.5789 1.81545C16.3541 1.81545 18.1028 2.17124 19.7783 2.87274C21.7793 3.71175 23.2908 4.99614 24.2699 6.69184C24.6723 7.38955 24.9815 8.15287 25.1859 8.95908C25.7435 11.1544 25.4748 13.4494 24.96 14.7489C23.8409 17.5751 22.2424 19.0664 21.0677 19.8272C22.6776 19.1547 24.6067 17.7341 25.7915 14.7401C26.3542 13.3182 26.7781 10.9942 26.2772 8.73955C25.6401 5.87049 23.7299 3.75087 20.5997 2.43998C19.0276 1.78138 17.3849 1.44704 15.7195 1.44704C14.2143 1.44704 12.6889 1.71451 11.1673 2.24442C12.2965 1.95928 13.4384 1.81419 14.5777 1.81419L14.5789 1.81545ZM15.6993 1.02816C17.4328 1.02816 19.1361 1.37386 20.7624 2.05517C23.036 3.00774 24.7064 4.38675 25.7271 6.1531C26.1649 6.91011 26.4866 7.75039 26.6873 8.64997C27.2083 10.998 26.768 13.4153 26.1826 14.8953C25.177 17.4363 23.6491 18.8633 22.3433 19.6594C23.9696 18.9932 25.8445 17.6899 26.8525 15.1438C27.1907 14.2897 28.7627 9.82585 26.4778 5.8667C25.3966 3.99437 23.5961 2.51947 21.127 1.48489C19.6988 0.886852 18.1924 0.582788 16.6493 0.582788C14.8174 0.582788 12.9463 0.999142 11.079 1.82176C12.612 1.29564 14.1626 1.02942 15.7018 1.02942L15.6993 1.02816ZM12.1186 3.07082C14.1171 3.07082 16.1194 3.55278 18.0687 4.50409C19.8805 5.38726 21.2545 6.62623 22.1553 8.18693C23.5911 10.6724 23.4498 13.3497 22.8946 14.8865C22.1137 17.0427 21.2658 18.3901 20.5681 19.2191C21.5951 18.3207 22.7849 16.7878 23.5924 14.214C23.774 13.6349 24.3128 11.5657 23.6189 9.22908C22.9476 6.96562 21.3743 5.30147 18.9405 4.28203C16.9635 3.45437 14.9738 3.03423 13.0283 3.03423C12.699 3.03423 12.3697 3.04685 12.0442 3.07082C12.0682 3.07082 12.0934 3.07082 12.1174 3.07082H12.1186ZM13.0296 2.61662C15.0306 2.61662 17.0745 3.04811 19.1033 3.89722C20.9807 4.68325 22.3862 5.86796 23.2795 7.41604C24.6585 9.8044 24.5247 12.6381 23.991 14.3401C23.2315 16.76 22.1503 18.2778 21.2166 19.2077C22.3244 18.3914 23.6277 16.9859 24.5739 14.5963C25.0635 13.3586 25.3183 11.167 24.7834 9.06254C24.3102 7.20408 23.0309 4.68829 19.6181 3.25881C17.9981 2.58003 16.3125 2.23685 14.6067 2.23685C13.3223 2.23685 12.024 2.42989 10.7358 2.81218C11.4853 2.68348 12.2536 2.61914 13.0296 2.61914V2.61662ZM11.9786 3.48844C13.0624 3.58937 14.1424 3.86315 15.1997 4.306C17.7268 5.36455 19.5928 6.9139 20.7447 8.90861C22.1591 11.3575 22.3597 14.3023 21.2948 16.9897C21.0059 17.7189 20.6299 18.4065 20.1858 19.021C20.8444 18.2589 21.7061 16.9443 22.5035 14.7439C23.4081 12.242 22.9552 7.35296 17.887 4.87881C15.9945 3.95526 14.0541 3.48717 12.1174 3.48717C12.072 3.48717 12.0253 3.48717 11.9799 3.48717L11.9786 3.48844Z" fill="url(#paint1_linear_525_15159)"/>
<path d="M11.9066 28.7649C11.8007 28.7372 9.28866 28.0533 6.65932 26.3009C4.19274 24.6582 1.12812 21.7159 0.530085 17.0326C0.178076 14.2758 0.570458 11.89 1.69588 9.93942C4.07288 5.82129 8.90511 4.91793 9.84885 4.77788C10.2892 4.71228 10.7295 4.67947 11.1572 4.67947C16.0058 4.67947 18.591 8.81147 19.0591 9.6404C19.1159 9.74007 19.097 9.86624 19.0149 9.94699C18.967 9.99367 18.9039 10.0189 18.8383 10.0189C18.803 10.0189 18.7677 10.0113 18.7349 9.99619C18.4232 9.85488 17.2814 9.39437 15.6551 9.39437C15.2223 9.39437 14.7833 9.42717 14.3493 9.49152C10.0911 10.1211 5.90232 13.8796 6.76657 20.6473C7.4832 26.2681 11.9092 28.6249 11.9533 28.6476L11.9079 28.7649H11.9066ZM11.1522 5.09835C10.7459 5.09835 10.327 5.12989 9.90941 5.19172C8.99974 5.32545 4.34919 6.19601 2.06302 10.1552C0.981766 12.0275 0.605785 14.3238 0.943915 16.9796C1.4713 21.1166 4.00223 23.8545 6.26189 25.5136C4.27727 23.7826 2.13368 21.0334 1.62018 17.0086C1.30854 14.5622 1.66686 12.4274 2.68629 10.6611C3.12284 9.90409 3.68933 9.20386 4.36811 8.58185C6.14077 6.95681 8.45469 6.12914 10.0293 5.89699C10.5983 5.81246 11.1635 5.77083 11.7073 5.77083C13.6074 5.77083 15.0659 6.28938 16.0879 6.8483C14.6029 5.68756 12.9463 5.10087 11.1534 5.10087L11.1522 5.09835ZM12.4555 7.29494C11.8511 7.29494 11.2178 7.34288 10.5743 7.43877C9.25712 7.63307 7.23213 8.50867 5.67774 10.0239C4.30377 11.3626 2.76578 13.7282 3.23386 17.3985C3.70447 21.0876 5.55031 23.6589 7.28512 25.3105C5.94143 23.6892 4.51194 21.1734 4.04639 17.5246C3.789 15.5059 4.11073 13.6967 5.00526 12.1486C6.38428 9.76026 8.90511 8.45947 10.645 8.07087C11.7048 7.83367 12.7267 7.71381 13.6806 7.71381C14.6344 7.71381 15.4595 7.82358 16.2493 8.03933C15.1277 7.54475 13.8547 7.29494 12.4555 7.29494ZM11.7023 6.18592C11.1812 6.18592 10.6374 6.22755 10.0886 6.3083C8.57581 6.53162 6.35147 7.32648 4.64821 8.88844C2.4819 10.8743 1.60125 13.5895 2.03148 16.9556C2.52354 20.8126 4.57629 23.481 6.56974 25.212C4.93461 23.5252 3.26919 20.9943 2.81751 17.4515C2.54246 15.299 2.89952 13.3485 3.87858 11.6528C4.28106 10.9551 4.78825 10.3066 5.38377 9.72493C7.00628 8.14405 9.12843 7.23059 10.5112 7.0262C11.1749 6.92779 11.8297 6.87858 12.458 6.87858C14.4893 6.87858 15.9566 7.39839 16.8537 7.85638C15.7459 7.01484 14.0578 6.18844 11.701 6.18844L11.7023 6.18592ZM13.6339 8.13774C12.7192 8.13774 11.7439 8.25255 10.7345 8.47713C10.1428 8.60961 8.08124 9.17736 6.4032 10.9462C4.77816 12.6583 4.12461 14.8537 4.45895 17.4704C4.82484 20.3331 5.80138 22.4704 6.8246 23.9958C5.82157 22.266 5.23867 20.2965 5.08601 18.1138C4.94596 16.1027 5.33077 14.2935 6.23161 12.734C7.66614 10.2485 10.0545 9.03101 11.6644 8.74461C12.7835 8.54526 13.8257 8.44433 14.7618 8.44433C15.4217 8.44433 16.0298 8.49353 16.5799 8.59194C15.6955 8.2904 14.7076 8.13774 13.6339 8.13774ZM14.7479 8.86446C13.8345 8.86446 12.8214 8.96288 11.7388 9.15591C9.1196 9.62273 5.11124 12.4603 5.50362 18.0861C5.65376 20.2473 6.24297 22.1992 7.2561 23.9049C6.79937 22.9145 6.4953 21.8408 6.35021 20.7003C6.00325 17.9826 6.41203 15.5917 7.56395 13.597C8.97829 11.1481 11.4285 9.50161 14.2874 9.07895C14.7517 9.01082 15.2186 8.97549 15.6765 8.97549C15.9857 8.97549 16.2922 8.99063 16.5938 9.02217C16.045 8.91746 15.4267 8.86446 14.7492 8.86446H14.7479Z" fill="url(#paint2_linear_525_15159)"/>
<defs>
<linearGradient id="paint0_linear_525_15159" x1="12.6826" y1="25.8681" x2="27.6574" y2="8.65879" gradientUnits="userSpaceOnUse">
<stop stop-color="#038C8C"/>
<stop offset="0.13" stop-color="#048686" stop-opacity="0.95"/>
<stop offset="0.33" stop-color="#077678" stop-opacity="0.8"/>
<stop offset="0.57" stop-color="#0B5B60" stop-opacity="0.56"/>
<stop offset="0.84" stop-color="#12373F" stop-opacity="0.23"/>
<stop offset="1" stop-color="#171F29" stop-opacity="0"/>
</linearGradient>
<linearGradient id="paint1_linear_525_15159" x1="27.8916" y1="12.4524" x2="5.51968" y2="7.98554" gradientUnits="userSpaceOnUse">
<stop stop-color="#038C8C"/>
<stop offset="0.13" stop-color="#048686" stop-opacity="0.95"/>
<stop offset="0.33" stop-color="#077678" stop-opacity="0.8"/>
<stop offset="0.57" stop-color="#0B5B60" stop-opacity="0.56"/>
<stop offset="0.84" stop-color="#12373F" stop-opacity="0.23"/>
<stop offset="1" stop-color="#171F29" stop-opacity="0"/>
</linearGradient>
<linearGradient id="paint2_linear_525_15159" x1="7.30052" y1="5.80547" x2="14.2035" y2="27.5486" gradientUnits="userSpaceOnUse">
<stop stop-color="#038C8C"/>
<stop offset="0.13" stop-color="#048686" stop-opacity="0.95"/>
<stop offset="0.33" stop-color="#077678" stop-opacity="0.8"/>
<stop offset="0.57" stop-color="#0B5B60" stop-opacity="0.56"/>
<stop offset="0.84" stop-color="#12373F" stop-opacity="0.23"/>
<stop offset="1" stop-color="#171F29" stop-opacity="0"/>
</linearGradient>
</defs>
</svg>
