<svg width="45" height="45" viewBox="0 0 45 45" fill="none" xmlns="http://www.w3.org/2000/svg">
<rect width="45" height="45" rx="8" fill="white"/>
<g clip-path="url(#clip0_2663_8919)">
<path d="M28.0357 5.01306C28.5014 5.25451 28.6911 5.82364 28.4496 6.28929C27.9667 7.20334 27.708 8.53131 27.6218 9.89377C27.5183 11.239 27.5873 12.498 27.6908 13.2396C27.7598 13.7569 27.3976 14.2398 26.863 14.3088C26.3456 14.3778 25.8627 14.0156 25.7937 13.4982C25.673 12.6187 25.604 11.2217 25.7075 9.7558C25.8109 8.30711 26.0869 6.68595 26.7422 5.42697C26.9837 4.96132 27.5701 4.77161 28.0357 5.01306Z" fill="#1A1A1A"/>
<path d="M22.4651 20.0173C23.0342 17.3097 17.1705 16.8785 14.1696 16.982C2.32143 17.2407 7.27112 24.3979 13.842 25.1912C16.5324 25.5362 21.7408 23.3976 22.4651 20.0173Z" fill="#CFEDFC"/>
<path d="M7.89202 18.4997C8.2197 18.2238 8.65086 17.9823 9.20274 17.7754L9.3752 18.2928L10.2375 19.362L11.4965 20.4831L12.4623 20.3451L17.2913 19.8449L22.3789 20.3796C22.2237 20.8797 21.965 21.3626 21.6201 21.7938C20.1197 21.5006 16.6014 21.4144 14.7043 21.3971C14.1869 21.9835 14.0145 24.0013 13.9627 25.2085C13.3936 25.1396 12.8245 25.0361 12.2726 24.8809C12.2208 23.9496 12.5485 22.6044 12.79 21.8628C11.2895 21.949 9.72013 22.6733 8.84056 23.1735C8.46115 22.8803 8.11622 22.5354 7.80579 22.156L9.73737 21.1039C9.44419 20.966 8.49564 19.5 7.89202 18.4997Z" fill="#00ACE6"/>
<path d="M21.4649 23.2771L23.2068 24.4326L15.3252 35.9359L13.4281 34.6769L11.9794 32.5729L11.2551 29.0891L12.5658 26.0193L15.6874 26.9678L21.4649 23.2771Z" fill="#FFE100"/>
<path d="M19.8782 15.6541C22.2064 10.6871 27.8977 11.9116 30.5709 13.688L23.2067 24.4497L22.3616 23.8806C21.2924 25.105 19.1021 26.0363 18.1363 26.3468C18.2398 27.7265 19.4125 28.7958 19.9816 29.1579L17.5671 32.6934C14.7388 30.8136 13.9109 28.1059 13.8592 27.0021L12.8072 26.9504C10.9618 31.0895 13.8592 34.2973 15.6528 35.5046L12.5312 40.0748L13.0831 35.7978C9.56486 32.8141 10.1857 28.3129 10.9446 26.433C8.51284 25.9501 4.30474 22.4836 5.09807 19.5345C6.44328 14.3606 15.4803 14.4468 19.8782 15.6541ZM22.4651 20.0001C23.017 17.3097 17.1705 16.8786 14.1696 16.982C12.2725 17.0165 10.7893 17.2407 9.68559 17.5857C10.1685 19.0861 11.3067 19.8277 11.8586 20.0174C15.3424 19.2585 19.8609 19.6207 22.4651 20.0001ZM22.2409 20.7245C20.43 20.483 17.7051 20.4313 16.3082 20.4313C14.3938 21.7248 14.1524 23.8806 14.3248 25.243C16.9118 25.2948 21.1026 23.5184 22.2409 20.7245ZM13.4453 25.1568C13.1004 23.1907 14.2214 21.3281 14.9112 20.5693C11.3757 20.7072 9.15095 21.6903 8.06443 22.4664C9.21993 23.7253 11.2205 24.7946 13.4453 25.1568ZM7.44356 21.6558C8.32313 21.1212 9.89254 20.6383 10.7376 20.4313C9.51312 19.5172 8.96124 18.5687 8.77153 17.9651C6.83994 18.8619 6.63299 20.2933 7.44356 21.6558ZM39.6769 12.7739C39.2803 12.429 38.6766 12.4635 38.3145 12.8602C37.6246 13.6363 36.4863 14.3606 35.2446 14.9642C34.0201 15.5506 32.8129 15.9645 32.0713 16.1542C31.5711 16.2749 31.2607 16.7923 31.3814 17.2925C31.5194 17.8099 32.0368 18.103 32.5542 17.9823C33.4165 17.7581 34.7617 17.3097 36.0897 16.6544C37.4004 16.0162 38.8318 15.1539 39.7631 14.0847C40.1081 13.7225 40.0736 13.1361 39.6769 12.7739Z" fill="#1A1A1A"/>
<path d="M27.639 23.4666C29.9673 21.9317 32.5715 27.1401 33.5717 29.934C37.7454 40.8681 29.1739 39.0055 25.9661 33.297C24.6554 30.9515 24.7244 25.3982 27.639 23.4666Z" fill="#CFEDFC"/>
<path d="M34.5031 36.2462C34.641 35.8495 34.71 35.3493 34.6928 34.7802L34.1409 34.8147L32.8129 34.4353L31.278 33.711L31.0538 32.7797L29.7086 28.1749L27.3114 23.7253C26.8974 24.053 26.5525 24.4669 26.2593 24.9326C27.1044 26.1916 28.4841 29.3821 29.2084 31.124C28.8463 31.8139 27.0182 32.7279 25.8972 33.2108L25.9489 33.3143C26.2076 33.7799 26.5008 34.2111 26.8285 34.625C27.7253 34.3146 28.8635 33.5212 29.4844 33.0211C29.9673 34.4181 29.8638 36.1427 29.7258 37.1257C30.1742 37.3672 30.6226 37.5741 31.0538 37.6949L31.3125 35.5218C31.5884 35.746 33.3303 36.0564 34.5031 36.2462Z" fill="#00ACE6"/>
<path d="M24.9313 25.6052L23.1895 24.4497L15.3251 35.9358L17.2222 37.1947L19.7574 37.7294L23.3102 37.0913L25.7074 34.763L23.6551 32.245C23.6379 32.245 24.9313 25.6052 24.9313 25.6052Z" fill="#FFE100"/>
<path d="M32.7095 24.2082C36.5036 20.2243 33.2441 15.4816 30.5709 13.688L23.2067 24.4497L24.0518 25.0188C23.293 26.4675 23.2412 28.813 23.3102 29.8133C21.9823 30.2444 20.5336 29.5546 19.9817 29.1752L17.5672 32.7107C20.3956 34.5905 23.2412 34.3491 24.3105 33.9869L24.7589 34.9354C21.5511 38.1777 17.4465 36.7118 15.6701 35.5218L12.5485 40.0921L16.3772 38.0053C20.4991 40.1266 24.5002 37.8673 25.9834 36.4704C27.3286 38.5227 32.1748 41.0751 34.6583 39.247C38.9354 36.0392 35.4861 27.7782 32.7095 24.2082ZM27.639 23.4666C29.9673 21.9662 32.5542 27.1574 33.5545 29.934C34.2271 31.6931 34.5721 33.1246 34.6583 34.2628C33.0716 34.3663 31.9506 33.6075 31.554 33.1763C31.0021 29.7098 28.9843 25.7087 27.639 23.4666ZM27.0699 23.9323C27.9667 25.5017 29.036 27.9679 29.5534 29.2614C29.0532 31.4862 27.1044 32.521 25.7592 32.8831C24.7589 30.5204 24.8624 26.0191 27.0699 23.9323ZM26.1559 33.642C28.1392 33.2281 29.4672 31.5034 29.9328 30.5894C31.1228 33.8834 31.0193 36.2807 30.6916 37.5741C29.0877 36.9705 27.3286 35.5391 26.1559 33.642ZM31.6919 37.8328C31.8644 36.8325 31.7264 35.2286 31.6229 34.3663C32.9337 35.1596 34.0374 35.2976 34.6755 35.2459C34.5376 37.3327 33.2786 38.0743 31.6919 37.8328Z" fill="#1A1A1A"/>
</g>
<defs>
<clipPath id="clip0_2663_8919">
<rect width="35" height="35.1841" fill="white" transform="translate(5 4.90796)"/>
</clipPath>
</defs>
</svg>
