<svg width="32" height="32" viewBox="0 0 32 32" fill="none" xmlns="http://www.w3.org/2000/svg">
<rect width="32" height="32" rx="4.8" fill="white"/>
<g clip-path="url(#clip0_2427_1373)">
<path d="M16.6975 17.1173C15.675 18.1397 15.675 19.7974 16.6975 20.8197C17.72 21.8421 19.3779 21.8421 20.4003 20.8197C21.4228 19.7974 21.4228 18.1397 20.4003 17.1173C19.3779 16.0949 17.72 16.0949 16.6975 17.1173ZM19.4655 19.8874C18.9591 20.3937 18.1387 20.3937 17.6324 19.8874C17.126 19.3811 17.126 18.5608 17.6324 18.0545C18.1387 17.5482 18.9591 17.5482 19.4655 18.0545C19.9719 18.5583 19.9719 19.3811 19.4655 19.8874ZM20.3565 4.23551L18.7522 5.83965C18.4382 6.15366 18.4382 6.66971 18.7522 6.98372L25.0161 13.2469C25.3301 13.5609 25.8462 13.5609 26.1603 13.2469L27.7646 11.6428C28.0786 11.3288 28.0786 10.8127 27.7646 10.4987L21.4983 4.23551C21.1842 3.9215 20.6706 3.9215 20.3565 4.23551ZM9.11662 24.7339C9.40145 24.4491 9.40145 23.9842 9.11662 23.6994L8.30108 22.8839C8.01625 22.5991 7.55126 22.5991 7.26643 22.8839L5.58179 24.5684L5.57935 24.5708L5.11681 24.1083C4.86119 23.8527 4.4449 23.8527 4.19171 24.1083C3.9361 24.3639 3.9361 24.7802 4.19171 25.0333L6.96699 27.8083C7.22261 28.0639 7.63891 28.0639 7.89209 27.8083C8.14527 27.5527 8.14771 27.1365 7.89209 26.8833L7.42954 26.4208L7.43198 26.4184L9.11662 24.7339Z" fill="#F5A800"/>
<path d="M17.6031 8.84097L14.0391 12.4046C13.7226 12.7211 13.7226 13.242 14.0391 13.5584L16.2398 15.759C17.7954 14.6392 19.9767 14.778 21.3765 16.1776L23.1585 14.3958C23.475 14.0794 23.475 13.5584 23.1585 13.242L18.757 8.84097C18.4406 8.52209 17.9196 8.52209 17.6031 8.84097ZM15.3147 16.6864L14.0147 15.3865C13.7104 15.0823 13.2113 15.0823 12.907 15.3865L8.32296 19.9726C8.01865 20.2768 8.01865 20.7759 8.32296 21.0801L10.9205 23.6774C11.2248 23.9817 11.7239 23.9817 12.0282 23.6774L14.9763 20.7247C14.3531 19.437 14.4651 17.8816 15.3147 16.6864Z" fill="#425CC7"/>
</g>
<defs>
<clipPath id="clip0_2427_1373">
<rect width="24" height="24" fill="white" transform="translate(4 4)"/>
</clipPath>
</defs>
</svg>
