<svg width="32" height="32" viewBox="0 0 32 32" fill="none" xmlns="http://www.w3.org/2000/svg">
<rect width="32" height="32" rx="4.8" fill="#E6522C"/>
<path d="M16.0001 28C13.8189 28 12.0505 26.5648 12.0505 24.795H19.9498C19.9498 26.5646 18.1814 28 16.0001 28ZM22.5237 23.7336H9.47583V21.4032H22.524L22.5237 23.7336ZM22.4769 20.2038H9.51306C9.46995 20.1548 9.42585 20.1066 9.38421 20.0569C8.04862 18.4596 7.73408 17.6257 7.4286 16.7759C7.42346 16.7479 9.04811 17.1028 10.2002 17.3581C10.2002 17.3581 10.793 17.4932 11.6597 17.6488C10.8276 16.688 10.3335 15.4666 10.3335 14.2182C10.3335 11.4775 12.4677 9.08245 11.6977 7.14661C12.4471 7.20669 13.2486 8.70435 13.3028 11.046C14.0994 9.9617 14.4328 7.98146 14.4328 6.76731C14.4328 5.51021 15.2738 4.04995 16.115 4C15.3652 5.21729 16.3093 6.26085 17.1486 8.84961C17.4634 9.82199 17.4232 11.4584 17.6662 12.4962C17.7468 10.3408 18.1231 7.19583 19.5113 6.11005C18.8989 7.47741 19.602 9.18837 20.0828 10.0109C20.8587 11.338 21.329 12.3434 21.329 14.245C21.329 15.52 20.8511 16.7204 20.0449 17.6587C20.9616 17.4893 21.5946 17.3366 21.5946 17.3366L24.5714 16.7645C24.5714 16.7645 24.1391 18.5165 22.4769 20.2038Z" fill="white"/>
</svg>
