<svg width="32" height="32" viewBox="0 0 32 32" fill="none" xmlns="http://www.w3.org/2000/svg">
<rect width="32" height="32" rx="4.8" fill="#4A154B"/>
<g clip-path="url(#clip0_2347_11404)">
<path d="M9.14016 19.118C9.14016 20.4976 8.0252 21.6125 6.64567 21.6125C5.26614 21.6125 4.15118 20.4976 4.15118 19.118C4.15118 17.7385 5.26614 16.6235 6.64567 16.6235H9.14016V19.118ZM10.3874 19.118C10.3874 17.7385 11.5024 16.6235 12.8819 16.6235C14.2614 16.6235 15.3764 17.7385 15.3764 19.118V25.3542C15.3764 26.7338 14.2614 27.8487 12.8819 27.8487C11.5024 27.8487 10.3874 26.7338 10.3874 25.3542V19.118Z" fill="#E01E5A"/>
<path d="M12.8819 9.10226C11.5024 9.10226 10.3874 7.9873 10.3874 6.60777C10.3874 5.22824 11.5024 4.11328 12.8819 4.11328C14.2614 4.11328 15.3764 5.22824 15.3764 6.60777V9.10226H12.8819ZM12.8819 10.3684C14.2614 10.3684 15.3764 11.4834 15.3764 12.8629C15.3764 14.2424 14.2614 15.3574 12.8819 15.3574H6.62678C5.24725 15.3574 4.13229 14.2424 4.13229 12.8629C4.13229 11.4834 5.24725 10.3684 6.62678 10.3684H12.8819Z" fill="#36C5F0"/>
<path d="M22.8787 12.8629C22.8787 11.4834 23.9937 10.3684 25.3732 10.3684C26.7528 10.3684 27.8677 11.4834 27.8677 12.8629C27.8677 14.2424 26.7528 15.3574 25.3732 15.3574H22.8787V12.8629ZM21.6315 12.8629C21.6315 14.2424 20.5165 15.3574 19.137 15.3574C17.7575 15.3574 16.6425 14.2424 16.6425 12.8629V6.60777C16.6425 5.22824 17.7575 4.11328 19.137 4.11328C20.5165 4.11328 21.6315 5.22824 21.6315 6.60777V12.8629Z" fill="#2EB67D"/>
<path d="M19.137 22.8598C20.5165 22.8598 21.6315 23.9747 21.6315 25.3542C21.6315 26.7338 20.5165 27.8487 19.137 27.8487C17.7575 27.8487 16.6425 26.7338 16.6425 25.3542V22.8598H19.137ZM19.137 21.6125C17.7575 21.6125 16.6425 20.4976 16.6425 19.118C16.6425 17.7385 17.7575 16.6235 19.137 16.6235H25.3921C26.7716 16.6235 27.8866 17.7385 27.8866 19.118C27.8866 20.4976 26.7716 21.6125 25.3921 21.6125H19.137Z" fill="#ECB22E"/>
</g>
<defs>
<clipPath id="clip0_2347_11404">
<rect width="24" height="24" fill="white" transform="translate(4 4)"/>
</clipPath>
</defs>
</svg>
