<svg width="16" height="16" viewBox="0 0 16 16" fill="none" xmlns="http://www.w3.org/2000/svg">
<rect width="16" height="16" rx="2" fill="#4A154B"/>
<g clip-path="url(#clip0_2371_3805)">
<path d="M5.71329 9.03937C5.71329 9.49921 5.34163 9.87087 4.88179 9.87087C4.42195 9.87087 4.05029 9.49921 4.05029 9.03937C4.05029 8.57953 4.42195 8.20787 4.88179 8.20787H5.71329V9.03937ZM6.12903 9.03937C6.12903 8.57953 6.50069 8.20787 6.96053 8.20787C7.42037 8.20787 7.79203 8.57953 7.79203 9.03937V11.1181C7.79203 11.578 7.42037 11.9496 6.96053 11.9496C6.50069 11.9496 6.12903 11.578 6.12903 11.1181V9.03937Z" fill="#E01E5A"/>
<path d="M6.96048 5.70079C6.50064 5.70079 6.12898 5.32913 6.12898 4.86929C6.12898 4.40945 6.50064 4.0378 6.96048 4.0378C7.42032 4.0378 7.79198 4.40945 7.79198 4.86929V5.70079H6.96048ZM6.96048 6.12283C7.42032 6.12283 7.79198 6.49449 7.79198 6.95433C7.79198 7.41417 7.42032 7.78583 6.96048 7.78583H4.87544C4.4156 7.78583 4.04395 7.41417 4.04395 6.95433C4.04395 6.49449 4.4156 6.12283 4.87544 6.12283H6.96048Z" fill="#36C5F0"/>
<path d="M10.2931 6.95433C10.2931 6.49449 10.6647 6.12283 11.1246 6.12283C11.5844 6.12283 11.9561 6.49449 11.9561 6.95433C11.9561 7.41417 11.5844 7.78583 11.1246 7.78583H10.2931V6.95433ZM9.87735 6.95433C9.87735 7.41417 9.50569 7.78583 9.04585 7.78583C8.58601 7.78583 8.21436 7.41417 8.21436 6.95433V4.86929C8.21436 4.40945 8.58601 4.0378 9.04585 4.0378C9.50569 4.0378 9.87735 4.40945 9.87735 4.86929V6.95433Z" fill="#2EB67D"/>
<path d="M9.04585 10.2866C9.50569 10.2866 9.87735 10.6583 9.87735 11.1181C9.87735 11.578 9.50569 11.9496 9.04585 11.9496C8.58601 11.9496 8.21436 11.578 8.21436 11.1181V10.2866H9.04585ZM9.04585 9.87087C8.58601 9.87087 8.21436 9.49921 8.21436 9.03937C8.21436 8.57953 8.58601 8.20787 9.04585 8.20787H11.1309C11.5907 8.20787 11.9624 8.57953 11.9624 9.03937C11.9624 9.49921 11.5907 9.87087 11.1309 9.87087H9.04585Z" fill="#ECB22E"/>
</g>
<defs>
<clipPath id="clip0_2371_3805">
<rect width="8" height="8" fill="white" transform="translate(4 4)"/>
</clipPath>
</defs>
</svg>
