<svg width="30" height="30" viewBox="0 0 30 30" fill="none" xmlns="http://www.w3.org/2000/svg">
<g id="ZeroK logo final-04" clip-path="url(#clip0_2292_1761)">
<path id="Vector" d="M17.8669 29.7001C13.1129 29.7001 9.91451 25.9681 9.32152 25.2199C5.7598 20.7258 8.36769 15.7611 8.92787 14.811C8.9733 14.7341 9.05657 14.6861 9.14614 14.6861C9.17012 14.6861 9.19283 14.6899 9.21554 14.6962C9.31647 14.7252 9.38839 14.811 9.39848 14.9145C9.44642 15.4065 9.71642 17.1514 11.1547 18.9657C12.8681 21.127 15.4003 22.3672 18.1028 22.366C20.3171 22.366 22.5048 21.5547 24.6068 19.9549C29.1135 16.5256 28.9444 11.513 28.9419 11.4625L29.0655 11.4436C29.0946 11.5483 29.7582 14.0616 29.5563 17.2196C29.3658 20.1769 28.3514 24.3026 24.5941 27.1629C22.3824 28.8459 20.1202 29.6988 17.8694 29.7001H17.8669ZM7.99171 18.7979C7.75577 20.5403 7.94755 22.8151 9.64829 24.96C10.2186 25.6804 13.2983 29.2736 17.8707 29.2736C20.0332 29.2736 22.2096 28.451 24.3406 26.8298C27.66 24.3039 28.7653 20.7434 29.0718 17.9577C28.5659 20.5416 27.2563 23.7727 24.0264 26.2305C22.0645 27.723 20.0357 28.4801 17.9956 28.4801C17.1212 28.4801 16.2317 28.34 15.3536 28.0637C13.0599 27.3408 11.1863 25.751 10.1984 24.5032C8.50143 22.3622 8.0283 20.3258 7.99297 18.7967L7.99171 18.7979ZM8.48124 17.6107C8.25918 19.3417 8.5254 21.7225 10.5252 24.2459C11.4752 25.4445 13.2756 26.9736 15.4798 27.6675C16.315 27.93 17.1603 28.0637 17.9918 28.0637C19.9423 28.0637 21.8878 27.3357 23.7741 25.8999C26.8677 23.5456 28.1533 20.4331 28.6542 17.8416C28.0108 20.1012 26.6507 22.8088 23.8094 24.9713C22.0821 26.2847 20.2149 26.9522 18.2567 26.9522C17.4505 26.9522 16.6355 26.8373 15.8343 26.6115C13.6541 25.9971 11.802 24.6168 10.9327 23.5204C9.04521 21.1383 8.55189 19.0086 8.47998 17.6107H8.48124ZM8.94554 18.0485C9.09946 19.4162 9.6647 21.2468 11.2607 23.2605C12.0871 24.3039 13.8573 25.6198 15.9479 26.209C16.7099 26.4235 17.4858 26.5333 18.2529 26.5333C20.1202 26.5333 21.9042 25.8961 23.5558 24.6395C26.5144 22.3874 27.819 19.5019 28.3817 17.1754C27.6499 19.1499 26.1851 21.6468 23.258 23.8737C21.638 25.1063 19.9108 25.7309 18.123 25.7309C15.365 25.7309 12.9779 24.1979 11.7717 22.8845C10.0558 21.0172 9.28114 19.3215 8.94428 18.0485H8.94554ZM9.25843 17.4807C9.52339 18.8194 10.2552 20.616 12.0808 22.6019C12.4909 23.0485 14.0137 24.5499 16.3844 25.1177C16.9673 25.2577 17.554 25.3284 18.1268 25.3284C19.8048 25.3284 21.4475 24.7266 23.007 23.5393C25.3032 21.7919 26.6671 19.8767 27.4758 18.2277C26.4804 19.9612 25.0648 21.4512 23.2517 22.6738C21.5813 23.8005 19.82 24.372 18.0195 24.372C15.1492 24.372 12.9009 22.9123 11.8474 21.6619C10.37 19.9082 9.62684 18.5002 9.25843 17.4807ZM9.6218 17.2473C9.95236 18.1986 10.6602 19.6029 12.1679 21.3932C13.1633 22.5741 15.2918 23.9544 18.0158 23.9544C19.7354 23.9544 21.4185 23.4068 23.0196 22.3281C24.8162 21.1169 26.2116 19.6319 27.1819 17.9009C26.5523 18.7916 25.7751 19.5915 24.8604 20.288C22.6802 21.9471 20.4054 22.7886 18.1015 22.7886C15.2741 22.7886 12.6233 21.4904 10.828 19.2244C10.341 18.6099 9.93343 17.94 9.62306 17.2473H9.6218Z" fill="url(#paint0_linear_2292_1761)"/>
<path id="Vector_2" d="M18.4233 20.8368C18.3085 20.8368 18.2088 20.7574 18.1798 20.6451C18.1533 20.5429 18.1924 20.4381 18.277 20.3776C18.6782 20.0899 20.0547 18.9834 20.9076 16.831C22.4922 12.829 21.3302 7.32173 15.0382 4.68608C13.6592 4.10824 12.2259 3.81553 10.7788 3.81553C7.68516 3.81553 5.53778 5.16426 5.51633 5.17814L5.43811 5.08099C5.51507 5.00403 7.35586 3.17333 10.1959 1.76782C12.3521 0.70044 14.5235 0.15918 16.6481 0.15918C18.2454 0.15918 19.8061 0.473338 21.2873 1.09408C23.8511 2.16777 25.7209 3.70071 26.8463 5.65001C29.2246 9.76687 27.5907 14.4035 27.2399 15.2918C25.1506 20.5706 19.5752 20.8381 18.4788 20.8381H18.4233V20.8368ZM14.579 1.81072C16.3542 1.81072 18.1028 2.16651 19.7784 2.868C21.7794 3.70702 23.2909 4.99141 24.2699 6.68711C24.6724 7.38482 24.9815 8.14813 25.1859 8.95434C25.7436 11.1497 25.4748 13.4447 24.9601 14.7442C23.841 17.5704 22.2424 19.0617 21.0678 19.8224C22.6777 19.15 24.6068 17.7293 25.7915 14.7354C26.3542 13.3134 26.7782 10.9894 26.2773 8.73481C25.6401 5.86575 23.7299 3.74613 20.5997 2.43525C19.0277 1.77665 17.385 1.44231 15.7195 1.44231C14.2144 1.44231 12.689 1.70978 11.1674 2.23969C12.2966 1.95455 13.4384 1.80946 14.5777 1.80946L14.579 1.81072ZM15.6993 1.02343C17.4329 1.02343 19.1362 1.36913 20.7625 2.05044C23.036 3.003 24.7065 4.38202 25.7272 6.14837C26.165 6.90538 26.4867 7.74566 26.6873 8.64523C27.2084 10.9932 26.7681 13.4106 26.1826 14.8905C25.1771 17.4316 23.6492 18.8585 22.3434 19.6546C23.9697 18.9885 25.8445 17.6852 26.8526 15.1391C27.1907 14.2849 28.7628 9.82112 26.4779 5.86197C25.3966 3.98964 23.5962 2.51473 21.1271 1.48016C19.6989 0.882122 18.1924 0.578057 16.6494 0.578057C14.8174 0.578057 12.9464 0.994411 11.0791 1.81703C12.612 1.29091 14.1626 1.02469 15.7019 1.02469L15.6993 1.02343ZM12.1187 3.06609C14.1172 3.06609 16.1195 3.54805 18.0688 4.49936C19.8806 5.38253 21.2545 6.6215 22.1554 8.1822C23.5912 10.6677 23.4498 13.345 22.8947 14.8817C22.1137 17.0379 21.2659 18.3854 20.5682 19.2143C21.5952 18.316 22.7849 16.7831 23.5924 14.2092C23.7741 13.6301 24.3128 11.561 23.6189 9.22434C22.9477 6.96089 21.3744 5.29674 18.9406 4.2773C16.9636 3.44964 14.9739 3.0295 13.0284 3.0295C12.6991 3.0295 12.3698 3.04212 12.0443 3.06609C12.0682 3.06609 12.0935 3.06609 12.1174 3.06609H12.1187ZM13.0296 2.61188C15.0307 2.61188 17.0746 3.04338 19.1034 3.89249C20.9807 4.67851 22.3862 5.86323 23.2795 7.41131C24.6585 9.79967 24.5248 12.6334 23.9911 14.3354C23.2316 16.7553 22.1503 18.2731 21.2167 19.203C22.3244 18.3867 23.6277 16.9811 24.574 14.5915C25.0635 13.3538 25.3184 11.1623 24.7834 9.0578C24.3103 7.19935 23.031 4.68356 19.6181 3.25408C17.9981 2.5753 16.3125 2.23212 14.6067 2.23212C13.3223 2.23212 12.0241 2.42516 10.7359 2.80744C11.4853 2.67875 12.2537 2.61441 13.0296 2.61441V2.61188ZM11.9787 3.4837C13.0624 3.58464 14.1424 3.85842 15.1997 4.30127C17.7269 5.35982 19.5929 6.90916 20.7448 8.90388C22.1591 11.3528 22.3598 14.2976 21.2949 16.9849C21.006 17.7142 20.63 18.4018 20.1859 19.0162C20.8445 18.2542 21.7062 16.9395 22.5036 14.7391C23.4082 12.2372 22.9553 7.34823 17.8871 4.87407C15.9946 3.95053 14.0541 3.48244 12.1174 3.48244C12.072 3.48244 12.0253 3.48244 11.9799 3.48244L11.9787 3.4837Z" fill="url(#paint1_linear_2292_1761)"/>
<path id="Vector_3" d="M11.9067 28.76C11.8007 28.7323 9.28872 28.0484 6.65938 26.296C4.1928 24.6532 1.12818 21.711 0.530146 17.0277C0.178137 14.2709 0.570519 11.8851 1.69594 9.9345C4.07294 5.81638 8.90517 4.91302 9.84891 4.77297C10.2892 4.70736 10.7296 4.67456 11.1573 4.67456C16.0059 4.67456 18.5911 8.80656 19.0592 9.63548C19.1159 9.73515 19.097 9.86132 19.015 9.94207C18.9671 9.98875 18.904 10.014 18.8384 10.014C18.803 10.014 18.7677 10.0064 18.7349 9.99128C18.4233 9.84997 17.2815 9.38945 15.6552 9.38945C15.2224 9.38945 14.7833 9.42226 14.3493 9.4866C10.0912 10.1162 5.90238 13.8747 6.76663 20.6424C7.48326 26.2631 11.9092 28.62 11.9534 28.6427L11.908 28.76H11.9067ZM11.1522 5.09344C10.746 5.09344 10.3271 5.12498 9.90947 5.1868C8.9998 5.32054 4.34925 6.1911 2.06309 10.1502C0.981827 12.0226 0.605846 14.3188 0.943976 16.9747C1.47136 21.1117 4.00229 23.8496 6.26195 25.5087C4.27733 23.7776 2.13374 21.0284 1.62024 17.0037C1.3086 14.5573 1.66692 12.4225 2.68636 10.6562C3.1229 9.89917 3.68939 9.19894 4.36817 8.57693C6.14083 6.95189 8.45475 6.12423 10.0293 5.89208C10.5983 5.80755 11.1636 5.76591 11.7074 5.76591C13.6075 5.76591 15.066 6.28446 16.0879 6.84339C14.6029 5.68264 12.9463 5.09596 11.1535 5.09596L11.1522 5.09344ZM12.4555 7.29002C11.8512 7.29002 11.2178 7.33796 10.5744 7.43385C9.25718 7.62815 7.23219 8.50376 5.6778 10.019C4.30383 11.3577 2.76584 13.7233 3.23392 17.3935C3.70453 21.0827 5.55037 23.654 7.28518 25.3055C5.94149 23.6843 4.51201 21.1685 4.04645 17.5197C3.78906 15.501 4.11079 13.6918 5.00532 12.1437C6.38434 9.75534 8.90517 8.45455 10.645 8.06595C11.7048 7.82876 12.7268 7.7089 13.6806 7.7089C14.6345 7.7089 15.4596 7.81866 16.2494 8.03441C15.1278 7.53983 13.8547 7.29002 12.4555 7.29002ZM11.7023 6.18101C11.1812 6.18101 10.6375 6.22264 10.0886 6.30339C8.57587 6.52671 6.35153 7.32156 4.64827 8.88352C2.48196 10.8694 1.60131 13.5845 2.03154 16.9507C2.5236 20.8076 4.57635 23.4761 6.56981 25.2071C4.93467 23.5203 3.26925 20.9893 2.81757 17.4465C2.54252 15.2941 2.89958 13.3436 3.87864 11.6479C4.28112 10.9502 4.78831 10.3016 5.38383 9.72001C7.00635 8.13913 9.12849 7.22568 10.5113 7.02128C11.1749 6.92287 11.8297 6.87367 12.4581 6.87367C14.4894 6.87367 15.9567 7.39348 16.8538 7.85147C15.746 7.00993 14.0579 6.18353 11.7011 6.18353L11.7023 6.18101ZM13.6339 8.13282C12.7192 8.13282 11.744 8.24764 10.7346 8.47221C10.1429 8.60469 8.0813 9.17245 6.40326 10.9413C4.77822 12.6534 4.12467 14.8487 4.45901 17.4655C4.8249 20.3282 5.80144 22.4655 6.82466 23.9909C5.82163 22.2611 5.23873 20.2916 5.08607 18.1089C4.94602 16.0978 5.33084 14.2886 6.23167 12.7291C7.6662 10.2436 10.0546 9.02609 11.6645 8.73969C12.7836 8.54034 13.8257 8.43941 14.7619 8.43941C15.4217 8.43941 16.0299 8.48862 16.58 8.58703C15.6955 8.28549 14.7076 8.13282 13.6339 8.13282ZM14.748 8.85955C13.8346 8.85955 12.8214 8.95796 11.7389 9.151C9.11966 9.61782 5.1113 12.4553 5.50369 18.0812C5.65383 20.2424 6.24303 22.1942 7.25616 23.9C6.79943 22.9096 6.49537 21.8359 6.35027 20.6954C6.00331 17.9777 6.4121 15.5868 7.56401 13.5921C8.97835 11.1432 11.4285 9.4967 14.2875 9.07404C14.7518 9.0059 15.2186 8.97058 15.6766 8.97058C15.9857 8.97058 16.2923 8.98572 16.5938 9.01726C16.045 8.91254 15.4268 8.85955 14.7493 8.85955H14.748Z" fill="url(#paint2_linear_2292_1761)"/>
</g>
<defs>
<linearGradient id="paint0_linear_2292_1761" x1="12.6826" y1="25.8633" x2="27.6575" y2="8.65403" gradientUnits="userSpaceOnUse">
<stop stop-color="#038C8C"/>
<stop offset="0.13" stop-color="#109292" stop-opacity="0.95"/>
<stop offset="0.33" stop-color="#35A3A3" stop-opacity="0.8"/>
<stop offset="0.57" stop-color="#72BEBE" stop-opacity="0.56"/>
<stop offset="0.84" stop-color="#C5E4E4" stop-opacity="0.23"/>
<stop offset="1" stop-color="white" stop-opacity="0"/>
</linearGradient>
<linearGradient id="paint1_linear_2292_1761" x1="27.8927" y1="12.447" x2="5.52147" y2="7.98126" gradientUnits="userSpaceOnUse">
<stop stop-color="#038C8C"/>
<stop offset="0.13" stop-color="#109292" stop-opacity="0.95"/>
<stop offset="0.33" stop-color="#35A3A3" stop-opacity="0.8"/>
<stop offset="0.57" stop-color="#72BEBE" stop-opacity="0.56"/>
<stop offset="0.84" stop-color="#C5E4E4" stop-opacity="0.23"/>
<stop offset="1" stop-color="white" stop-opacity="0"/>
</linearGradient>
<linearGradient id="paint2_linear_2292_1761" x1="7.30058" y1="5.80056" x2="14.2042" y2="27.5426" gradientUnits="userSpaceOnUse">
<stop stop-color="#038C8C"/>
<stop offset="0.13" stop-color="#109292" stop-opacity="0.95"/>
<stop offset="0.33" stop-color="#35A3A3" stop-opacity="0.8"/>
<stop offset="0.57" stop-color="#72BEBE" stop-opacity="0.56"/>
<stop offset="0.84" stop-color="#C5E4E4" stop-opacity="0.23"/>
<stop offset="1" stop-color="white" stop-opacity="0"/>
</linearGradient>
<clipPath id="clip0_2292_1761">
<rect width="29.0628" height="29.4148" fill="white" transform="translate(0.468262 0.222168)"/>
</clipPath>
</defs>
</svg>
