<svg width="123" height="126" viewBox="0 0 123 126" fill="none" xmlns="http://www.w3.org/2000/svg">
<g clip-path="url(#clip0_30491_29900)">
<path d="M73.1124 124.065C53.3195 124.065 40.0035 108.527 37.5346 105.412C22.7058 86.7016 33.5635 66.0315 35.8957 62.0761C36.0848 61.7556 36.4315 61.556 36.8045 61.556C36.9043 61.556 36.9988 61.5718 37.0934 61.5981C37.5136 61.7189 37.813 62.0761 37.8551 62.5068C38.0547 64.5554 39.1788 71.8202 45.1671 79.3738C52.3005 88.372 62.843 93.5355 74.0947 93.5303C83.3135 93.5303 92.422 90.1527 101.173 83.492C119.937 69.2147 119.233 48.3451 119.222 48.1349L119.737 48.0562C119.858 48.4921 122.621 58.9559 121.78 72.1038C120.987 84.4165 116.764 101.593 101.121 113.502C91.9124 120.509 82.494 124.06 73.1229 124.065H73.1124ZM31.9981 78.6752C31.0158 85.9294 31.8143 95.4003 38.8951 104.33C41.2694 107.33 54.0917 122.29 73.1281 122.29C82.1316 122.29 91.1928 118.865 100.065 112.115C113.885 101.599 118.487 86.7751 119.763 75.1767C117.657 85.9346 112.204 99.3872 98.7569 109.62C90.5887 115.834 82.1421 118.986 73.6482 118.986C70.0079 118.986 66.3046 118.403 62.6486 117.252C53.0989 114.242 45.2984 107.624 41.1854 102.429C34.1203 93.5145 32.1504 85.0364 32.0034 78.6699L31.9981 78.6752ZM34.0362 73.7322C33.1117 80.9391 34.2201 90.8513 42.5459 101.357C46.5013 106.347 53.9972 112.714 63.1739 115.603C66.6513 116.695 70.1708 117.252 73.6324 117.252C81.7534 117.252 89.8533 114.221 97.7063 108.244C110.586 98.4417 115.939 85.4829 118.024 74.6935C115.345 84.1014 109.683 95.374 97.8534 104.377C90.6622 109.846 82.888 112.624 74.7355 112.624C71.3789 112.624 67.9856 112.146 64.65 111.206C55.573 108.648 47.8618 102.901 44.2426 98.3367C36.3843 88.4192 34.3304 79.5524 34.031 73.7322H34.0362ZM35.9693 75.5549C36.6101 81.2491 38.9634 88.871 45.6083 97.2546C49.0489 101.599 56.4187 107.077 65.1227 109.531C68.2955 110.424 71.526 110.881 74.7198 110.881C82.494 110.881 89.9216 108.228 96.7976 102.996C109.116 93.6196 114.547 81.6063 116.89 71.92C113.843 80.1407 107.745 90.5362 95.5579 99.8075C88.8132 104.94 81.622 107.54 74.1787 107.54C62.6959 107.54 52.7575 101.157 47.7357 95.6892C40.5918 87.915 37.3665 80.8551 35.964 75.5549H35.9693ZM37.272 73.1912C38.3751 78.7645 41.4218 86.2446 49.0227 94.5126C50.7299 96.3721 57.0701 102.623 66.9402 104.987C69.3671 105.57 71.8097 105.864 74.1945 105.864C81.1808 105.864 88.02 103.358 94.5126 98.4155C104.073 91.1402 109.751 83.1664 113.118 76.3009C108.974 83.5183 103.08 89.722 95.5316 94.812C88.5768 99.5028 81.2438 101.882 73.748 101.882C61.7977 101.882 52.4371 95.8048 48.0509 90.5992C41.8998 83.2977 38.8058 77.4355 37.272 73.1912ZM38.7848 72.2194C40.1611 76.18 43.1079 82.0265 49.3851 89.4803C53.5296 94.397 62.3913 100.144 73.7322 100.144C80.8919 100.144 87.8992 97.8639 94.5651 93.3727C102.045 88.3299 107.855 82.1473 111.894 74.9404C109.273 78.6489 106.037 81.9792 102.229 84.8788C93.1521 91.7863 83.6812 95.29 74.0894 95.29C62.3177 95.29 51.2814 89.8848 43.8066 80.4506C41.779 77.8925 40.0823 75.1032 38.7901 72.2194H38.7848Z" fill="url(#paint0_linear_30491_29900)"/>
<path d="M75.4288 87.1641C74.9508 87.1641 74.5358 86.8331 74.415 86.3656C74.3047 85.9401 74.4675 85.5042 74.8195 85.252C76.4899 84.0544 82.2208 79.4476 85.7717 70.4862C92.3693 53.8241 87.5314 30.8953 61.3354 19.922C55.594 17.5162 49.6267 16.2975 43.6016 16.2975C30.7216 16.2975 21.7812 21.9129 21.6919 21.9706L21.3662 21.5662C21.6866 21.2457 29.3506 13.6238 41.1748 7.77212C50.152 3.32819 59.1922 1.07471 68.038 1.07471C74.6882 1.07471 81.186 2.38267 87.3528 4.96709C98.0267 9.43728 105.811 15.8195 110.497 23.9352C120.399 41.0753 113.596 60.3797 112.136 64.0777C103.437 86.0557 80.2247 87.1693 75.6599 87.1693H75.4288V87.1641ZM59.4233 7.95072C66.8141 7.95072 74.0946 9.43203 81.0704 12.3526C89.4015 15.8458 95.6944 21.1932 99.7706 28.2531C101.446 31.1579 102.733 34.3359 103.584 37.6925C105.906 46.8325 104.787 56.3875 102.644 61.7979C97.9847 73.5644 91.3293 79.7733 86.4388 82.9408C93.1415 80.141 101.173 74.2262 106.106 61.7612C108.448 55.8412 110.213 46.1654 108.128 36.7785C105.475 24.8335 97.5224 16.0086 84.49 10.5509C77.9449 7.80889 71.1057 6.41688 64.1719 6.41688C57.9052 6.41688 51.5545 7.53049 45.2195 9.7367C49.9208 8.54955 54.6747 7.94547 59.418 7.94547L59.4233 7.95072ZM64.0879 4.67293C71.3053 4.67293 78.3967 6.11221 85.1676 8.94877C94.6333 12.9147 101.588 18.6561 105.838 26.0101C107.66 29.1618 109 32.6602 109.835 36.4055C112.005 46.1811 110.171 56.2456 107.734 62.4073C103.547 72.9866 97.1862 78.9276 91.7495 82.2421C98.5205 79.4686 106.326 74.0424 110.523 63.4421C111.931 59.8859 118.476 41.3012 108.963 24.8177C104.461 17.0224 96.9656 10.8818 86.6857 6.57447C80.7395 4.0846 74.4675 2.81866 68.0433 2.81866C60.4161 2.81866 52.6261 4.55211 44.8518 7.97698C51.2341 5.78654 57.6898 4.67818 64.0984 4.67818L64.0879 4.67293ZM49.1802 13.1773C57.5007 13.1773 65.8371 15.1839 73.9528 19.1446C81.4959 22.8216 87.2163 27.9799 90.9668 34.4777C96.9446 44.8259 96.3563 55.9725 94.045 62.3705C90.7935 71.3477 87.2635 76.9577 84.3587 80.4089C88.6345 76.6688 93.588 70.2866 96.9498 59.5707C97.7063 57.1596 99.9492 48.5449 97.0602 38.8166C94.2656 29.393 87.7153 22.4644 77.5825 18.2201C69.3512 14.7742 61.0675 13.025 52.9675 13.025C51.5965 13.025 50.2255 13.0775 48.8703 13.1773C48.9701 13.1773 49.0751 13.1773 49.1749 13.1773H49.1802ZM52.9728 11.2863C61.3038 11.2863 69.8135 13.0828 78.2601 16.618C86.0764 19.8905 91.9281 24.823 95.6471 31.2682C101.389 41.2119 100.832 53.0099 98.6098 60.096C95.4475 70.171 90.9458 76.4902 87.0587 80.3616C91.6707 76.963 97.0969 71.1113 101.037 61.1623C103.075 56.0093 104.136 46.885 101.909 38.1232C99.9387 30.3857 94.6123 19.9115 80.4033 13.96C73.6586 11.134 66.6408 9.70518 59.5389 9.70518C54.1914 9.70518 48.7862 10.5089 43.423 12.1005C46.5432 11.5647 49.7422 11.2968 52.9728 11.2968V11.2863ZM48.5971 14.916C53.1093 15.3363 57.6058 16.4761 62.0077 18.3199C72.5292 22.7271 80.2982 29.1776 85.0941 37.4824C90.9826 47.6782 91.8178 59.9384 87.3844 71.127C86.1815 74.1632 84.6161 77.026 82.7671 79.5842C85.5091 76.4114 89.0968 70.9379 92.4166 61.7769C96.1829 51.3605 94.2971 31.0056 73.1963 20.7047C65.317 16.8596 57.2381 14.9108 49.1749 14.9108C48.9858 14.9108 48.7915 14.9108 48.6024 14.9108L48.5971 14.916Z" fill="url(#paint1_linear_30491_29900)"/>
<path d="M48.2977 120.152C47.8565 120.037 37.398 117.19 26.451 109.893C16.1816 103.054 3.42237 90.8043 0.93251 71.3056C-0.533042 59.8281 1.1006 49.8949 5.78617 41.774C15.6826 24.6286 35.8011 20.8675 39.7303 20.2845C41.5635 20.0113 43.3968 19.8748 45.1775 19.8748C65.3643 19.8748 76.1274 37.0779 78.0763 40.5291C78.3126 40.944 78.2338 41.4693 77.8924 41.8055C77.6928 41.9999 77.4302 42.1049 77.157 42.1049C77.0099 42.1049 76.8628 42.0734 76.7263 42.0104C75.4288 41.422 70.6749 39.5047 63.904 39.5047C62.1023 39.5047 60.2743 39.6413 58.4673 39.9092C40.7388 42.5304 23.2993 58.1787 26.8975 86.3551C29.8811 109.757 48.3082 119.569 48.4921 119.664L48.3029 120.152H48.2977ZM45.1565 21.6187C43.465 21.6187 41.7211 21.75 39.9824 22.0074C36.1951 22.5642 16.833 26.1887 7.31475 42.6722C2.81304 50.4675 1.24768 60.0277 2.65545 71.085C4.85116 88.3092 15.3884 99.7079 24.7963 106.615C16.5336 99.4085 7.60892 87.9625 5.471 71.2058C4.17354 61.0205 5.66535 52.1327 9.90968 44.7786C11.7272 41.6269 14.0857 38.7116 16.9118 36.1219C24.2921 29.3562 33.9258 25.9103 40.4814 24.9438C42.8505 24.5918 45.2038 24.4185 47.4677 24.4185C55.3786 24.4185 61.4509 26.5774 65.7057 28.9044C59.5231 24.0718 52.6261 21.6292 45.1617 21.6292L45.1565 21.6187ZM50.5827 30.764C48.0666 30.764 45.4296 30.9636 42.7507 31.3628C37.2667 32.1717 28.8358 35.8172 22.3642 42.1259C16.6439 47.6992 10.2406 57.5484 12.1894 72.829C14.1487 88.1884 21.8337 98.8937 29.0564 105.77C23.4621 99.0198 17.5106 88.5456 15.5723 73.3543C14.5007 64.9497 15.8402 57.417 19.5645 50.9718C25.3059 41.0281 35.8011 35.6124 43.0448 33.9945C47.4572 33.0069 51.7121 32.5079 55.6832 32.5079C59.6544 32.5079 63.0898 32.9649 66.3781 33.8632C61.7083 31.804 56.4081 30.764 50.5827 30.764ZM47.4467 26.1467C45.2773 26.1467 43.0133 26.32 40.7283 26.6562C34.4301 27.586 25.1693 30.8953 18.0779 37.3983C9.05871 45.6664 5.3922 56.9706 7.18343 70.9852C9.23205 87.0433 17.7785 98.1531 26.078 105.36C19.2703 98.3369 12.3365 87.7997 10.456 73.0496C9.31085 64.0882 10.7974 55.9673 14.8736 48.9074C16.5493 46.0026 18.661 43.3026 21.1403 40.881C27.8955 34.2991 36.7309 30.4961 42.488 29.6451C45.251 29.2354 47.9773 29.0305 50.5932 29.0305C59.0503 29.0305 65.1594 31.1947 68.8942 33.1015C64.2822 29.5978 57.2538 26.1572 47.4415 26.1572L47.4467 26.1467ZM55.4889 34.2729C51.6805 34.2729 47.6201 34.7509 43.4178 35.6859C40.9542 36.2375 32.371 38.6013 25.3847 45.9658C18.6189 53.0939 15.898 62.2339 17.29 73.1284C18.8133 85.0472 22.879 93.9455 27.1391 100.296C22.9631 93.0946 20.5362 84.8948 19.9006 75.8074C19.3176 67.4343 20.9197 59.9017 24.6703 53.4091C30.6428 43.0609 40.5865 37.9919 47.2891 36.7995C51.9484 35.9696 56.2873 35.5493 60.185 35.5493C62.9322 35.5493 65.4641 35.7542 67.7543 36.1639C64.0721 34.9085 59.9591 34.2729 55.4889 34.2729ZM60.1272 37.2985C56.3241 37.2985 52.106 37.7083 47.5991 38.512C36.6941 40.4555 20.0057 52.2692 21.6393 75.6918C22.2644 84.69 24.7175 92.8162 28.9356 99.9181C27.0341 95.7946 25.7681 91.3244 25.164 86.5758C23.7195 75.2611 25.4214 65.3069 30.2173 57.0021C36.1058 46.8062 46.3069 39.9512 58.2099 38.1915C60.1429 37.9079 62.0865 37.7608 63.9933 37.7608C65.2802 37.7608 66.5567 37.8238 67.8121 37.9551C65.5271 37.5192 62.9532 37.2985 60.1324 37.2985H60.1272Z" fill="url(#paint2_linear_30491_29900)"/>
</g>
<defs>
<linearGradient id="paint0_linear_30491_29900" x1="51.5283" y1="108.091" x2="113.875" y2="36.442" gradientUnits="userSpaceOnUse">
<stop stop-color="#038C8C"/>
<stop offset="0.13" stop-color="#109292" stop-opacity="0.95"/>
<stop offset="0.33" stop-color="#35A3A3" stop-opacity="0.8"/>
<stop offset="0.57" stop-color="#72BEBE" stop-opacity="0.56"/>
<stop offset="0.84" stop-color="#C5E4E4" stop-opacity="0.23"/>
<stop offset="1" stop-color="white" stop-opacity="0"/>
</linearGradient>
<linearGradient id="paint1_linear_30491_29900" x1="114.854" y1="52.234" x2="21.7133" y2="33.6411" gradientUnits="userSpaceOnUse">
<stop stop-color="#038C8C"/>
<stop offset="0.13" stop-color="#109292" stop-opacity="0.95"/>
<stop offset="0.33" stop-color="#35A3A3" stop-opacity="0.8"/>
<stop offset="0.57" stop-color="#72BEBE" stop-opacity="0.56"/>
<stop offset="0.84" stop-color="#C5E4E4" stop-opacity="0.23"/>
<stop offset="1" stop-color="white" stop-opacity="0"/>
</linearGradient>
<linearGradient id="paint2_linear_30491_29900" x1="29.1206" y1="24.5628" x2="57.8631" y2="115.084" gradientUnits="userSpaceOnUse">
<stop stop-color="#038C8C"/>
<stop offset="0.13" stop-color="#109292" stop-opacity="0.95"/>
<stop offset="0.33" stop-color="#35A3A3" stop-opacity="0.8"/>
<stop offset="0.57" stop-color="#72BEBE" stop-opacity="0.56"/>
<stop offset="0.84" stop-color="#C5E4E4" stop-opacity="0.23"/>
<stop offset="1" stop-color="white" stop-opacity="0"/>
</linearGradient>
<clipPath id="clip0_30491_29900">
<rect width="121" height="122.466" fill="white" transform="translate(0.675049 1.33716)"/>
</clipPath>
</defs>
</svg>
