<svg width="400" height="400" viewBox="0 0 400 400" fill="none" xmlns="http://www.w3.org/2000/svg">
<rect width="400" height="400" rx="200" fill="#0C0B1B"/>
<path d="M230.094 383.993C170.24 383.993 129.971 337.005 122.506 327.586C77.6625 271.004 110.497 208.496 117.549 196.535C118.121 195.566 119.17 194.962 120.298 194.962C120.599 194.962 120.885 195.01 121.171 195.09C122.442 195.455 123.347 196.535 123.475 197.838C124.078 204.033 127.478 226.002 145.586 248.844C167.158 276.055 199.039 291.67 233.064 291.654C260.942 291.654 288.487 281.44 314.951 261.298C371.692 218.123 369.563 155.012 369.532 154.377L371.088 154.138C371.454 155.457 379.809 187.099 377.268 226.859C374.869 264.094 362.098 316.037 314.792 352.048C286.946 373.239 258.464 383.977 230.126 383.993H230.094ZM105.763 246.731C102.792 268.668 105.207 297.309 126.62 324.313C133.8 333.384 172.575 378.624 230.142 378.624C257.368 378.624 284.77 368.267 311.599 347.855C353.393 316.053 367.308 271.226 371.168 236.152C364.798 268.684 348.309 309.366 307.644 340.309C282.943 359.101 257.4 368.632 231.714 368.632C220.706 368.632 209.507 366.869 198.451 363.39C169.573 354.288 145.983 334.273 133.546 318.563C112.18 291.606 106.224 265.968 105.779 246.715L105.763 246.731ZM111.926 231.784C109.13 253.578 112.482 283.553 137.66 315.322C149.621 330.413 172.289 349.666 200.04 358.402C210.556 361.706 221.198 363.39 231.667 363.39C256.225 363.39 280.719 354.225 304.467 336.147C343.417 306.506 359.604 267.318 365.91 234.691C357.809 263.14 340.685 297.229 304.912 324.456C283.165 340.992 259.656 349.395 235.002 349.395C224.852 349.395 214.59 347.95 204.503 345.107C177.054 337.371 153.735 319.993 142.791 306.189C119.027 276.198 112.816 249.384 111.91 231.784H111.926ZM117.772 237.296C119.71 254.515 126.826 277.564 146.921 302.916C157.325 316.053 179.612 332.621 205.933 340.039C215.528 342.74 225.297 344.122 234.955 344.122C258.464 344.122 280.926 336.1 301.719 320.278C338.969 291.924 355.394 255.595 362.479 226.303C353.265 251.163 334.823 282.6 297.97 310.636C277.574 326.156 255.827 334.019 233.319 334.019C198.594 334.019 168.54 314.719 153.354 298.183C131.751 274.673 121.997 253.324 117.756 237.296H117.772ZM121.711 230.148C125.047 247.001 134.26 269.622 157.246 294.624C162.408 300.248 181.581 319.151 211.429 326.299C218.768 328.062 226.155 328.952 233.366 328.952C254.493 328.952 275.175 321.375 294.809 306.427C323.72 284.426 340.891 260.313 351.073 239.551C338.54 261.377 320.717 280.137 297.891 295.53C276.859 309.715 254.684 316.911 232.016 316.911C195.878 316.911 167.571 298.532 154.307 282.79C135.706 260.71 126.35 242.983 121.711 230.148ZM126.286 227.209C130.448 239.186 139.359 256.866 158.342 279.407C170.875 294.275 197.673 311.653 231.968 311.653C253.62 311.653 274.81 304.759 294.968 291.177C317.588 275.928 335.157 257.231 347.372 235.437C339.446 246.652 329.661 256.723 318.144 265.491C290.695 286.38 262.054 296.975 233.049 296.975C197.45 296.975 164.076 280.63 141.472 252.1C135.341 244.365 130.21 235.93 126.302 227.209H126.286Z" fill="url(#paint0_linear_30876_22369)"/>
<path d="M237.099 272.401C235.654 272.401 234.399 271.401 234.033 269.987C233.7 268.7 234.192 267.382 235.257 266.619C240.308 262.998 257.638 249.066 268.377 221.967C288.328 171.58 273.698 102.242 194.48 69.0587C177.118 61.7835 159.073 58.0982 140.853 58.0982C101.903 58.0982 74.8667 75.0791 74.5967 75.2539L73.6118 74.0307C74.5808 73.0617 97.7569 50.0127 133.514 32.317C160.661 18.8783 187.999 12.0637 214.749 12.0637C234.859 12.0637 254.509 16.0191 273.158 23.8344C305.436 37.3525 328.977 56.6526 343.147 81.1948C373.09 133.027 352.519 191.404 348.103 202.587C321.798 269.05 251.602 272.417 237.798 272.417H237.099V272.401ZM188.698 32.8571C211.048 32.8571 233.064 37.3366 254.16 46.1686C279.353 56.7321 298.383 72.9029 310.71 94.2522C315.777 103.037 319.669 112.647 322.242 122.797C329.263 150.437 325.88 179.332 319.399 195.693C305.309 231.275 285.183 250.051 270.394 259.63C290.663 251.163 314.951 233.277 329.867 195.582C336.952 177.68 342.289 148.42 335.983 120.033C327.961 83.9111 303.911 57.2245 264.501 40.7201C244.708 32.4282 224.026 28.2187 203.058 28.2187C184.107 28.2187 164.902 31.5863 145.745 38.2579C159.962 34.6679 174.338 32.8412 188.682 32.8412L188.698 32.8571ZM202.804 22.9449C224.63 22.9449 246.074 27.2973 266.55 35.8752C295.174 47.8683 316.206 65.2305 329.057 87.4694C334.569 97.0003 338.62 107.58 341.145 118.906C347.706 148.467 342.162 178.903 334.791 197.536C322.131 229.528 302.894 247.494 286.454 257.517C306.929 249.13 330.534 232.721 343.226 200.665C347.483 189.911 367.276 133.71 338.508 83.8635C324.895 60.2903 302.227 41.7208 271.141 28.6952C253.159 21.1658 234.192 17.3375 214.765 17.3375C191.7 17.3375 168.143 22.5795 144.633 32.9365C163.933 26.3125 183.456 22.9608 202.835 22.9608L202.804 22.9449ZM157.722 48.6625C182.884 48.6625 208.093 54.7306 232.636 66.7078C255.446 77.8272 272.745 93.4262 284.087 113.076C302.164 144.369 300.385 178.077 293.395 197.425C283.563 224.572 272.888 241.537 264.104 251.973C277.034 240.663 292.013 221.363 302.18 188.958C304.467 181.667 311.25 155.616 302.513 126.197C294.062 97.6992 274.254 76.747 243.612 63.912C218.72 53.4915 193.67 48.2019 169.175 48.2019C165.029 48.2019 160.883 48.3607 156.785 48.6625C157.087 48.6625 157.405 48.6625 157.706 48.6625H157.722ZM169.191 42.944C194.385 42.944 220.118 48.3766 245.661 59.0671C269.298 68.9634 286.994 83.8794 298.24 103.37C315.602 133.44 313.919 169.118 307.199 190.546C297.637 221.014 284.023 240.123 272.268 251.83C286.215 241.553 302.624 223.857 314.538 193.771C320.701 178.188 323.91 150.596 317.175 124.1C311.218 100.701 295.111 69.027 252.142 51.0294C231.746 42.4833 210.524 38.1626 189.047 38.1626C172.877 38.1626 156.531 40.593 140.313 45.4061C149.748 43.7859 159.422 42.9757 169.191 42.9757V42.944ZM155.959 53.9204C169.604 55.1912 183.202 58.6383 196.513 64.2139C228.331 77.5413 251.825 97.0479 266.327 122.162C284.134 152.995 286.66 190.07 273.253 223.905C269.616 233.086 264.882 241.744 259.29 249.479C267.582 239.885 278.432 223.333 288.471 195.63C299.86 164.13 294.158 102.576 230.348 71.4256C206.521 59.7978 182.09 53.9046 157.706 53.9046C157.135 53.9046 156.547 53.9046 155.975 53.9046L155.959 53.9204Z" fill="url(#paint1_linear_30876_22369)"/>
<path d="M155.053 372.159C153.719 371.809 122.092 363.199 88.9882 341.135C57.9332 320.453 19.3488 283.41 11.8193 224.445C7.38743 189.736 12.3276 159.698 26.497 135.14C56.4241 83.2916 117.263 71.918 129.145 70.1548C134.689 69.3288 140.233 68.9158 145.618 68.9158C206.663 68.9158 239.212 120.939 245.105 131.375C245.82 132.63 245.581 134.219 244.549 135.235C243.945 135.823 243.151 136.141 242.325 136.141C241.88 136.141 241.436 136.045 241.023 135.855C237.099 134.076 222.723 128.278 202.247 128.278C196.799 128.278 191.271 128.691 185.807 129.501C132.195 137.427 79.4572 184.748 90.3384 269.955C99.361 340.722 155.085 370.395 155.641 370.681L155.069 372.159H155.053ZM145.554 74.1896C140.439 74.1896 135.166 74.5867 129.908 75.365C118.455 77.0488 59.9029 88.0094 31.1195 137.856C17.5061 161.429 12.7724 190.34 17.0296 223.778C23.6695 275.864 55.5346 310.334 83.9844 331.223C58.9975 309.429 32.009 274.816 25.5439 224.143C21.6203 193.342 26.1316 166.465 38.9666 144.226C44.4628 134.695 51.5951 125.879 60.1412 118.048C82.4595 97.588 111.592 87.1675 131.417 84.2447C138.581 83.1804 145.697 82.6562 152.544 82.6562C176.466 82.6562 194.829 89.1849 207.696 96.2219C188.999 81.6078 168.143 74.2213 145.57 74.2213L145.554 74.1896ZM161.963 101.845C154.355 101.845 146.38 102.449 138.279 103.656C121.695 106.102 96.1999 117.126 76.6297 136.204C59.3311 153.058 39.9674 182.842 45.8607 229.051C51.7857 275.499 75.0253 307.872 96.8671 328.666C79.9496 308.254 61.9521 276.579 56.0905 230.64C52.85 205.224 56.9007 182.445 68.1631 162.954C85.5252 132.884 117.263 116.507 139.169 111.614C152.512 108.628 165.379 107.119 177.388 107.119C189.397 107.119 199.785 108.501 209.729 111.217C195.608 104.99 179.58 101.845 161.963 101.845ZM152.48 87.8823C145.92 87.8823 139.073 88.4065 132.163 89.4232C113.117 92.2348 85.1122 102.242 63.6676 121.908C36.3933 146.911 25.3056 181.095 30.7223 223.476C36.9175 272.036 62.7622 305.633 87.8603 327.427C67.2735 306.189 46.3054 274.323 40.6186 229.719C37.1557 202.619 41.6512 178.061 53.9778 156.712C59.0451 147.927 65.4309 139.762 72.9285 132.439C93.3565 112.536 120.075 101.035 137.485 98.4617C145.84 97.2227 154.084 96.6032 161.995 96.6032C187.57 96.6032 206.044 103.148 217.338 108.914C203.391 98.3187 182.137 87.9141 152.464 87.9141L152.48 87.8823ZM176.8 112.456C165.283 112.456 153.004 113.902 140.296 116.729C132.846 118.397 106.89 125.545 85.7635 147.816C65.3038 169.372 57.0754 197.012 61.2849 229.957C65.8915 266 78.1864 292.909 91.0691 312.114C78.4406 290.335 71.1018 265.539 69.1797 238.058C67.4165 212.738 72.2614 189.959 83.6032 170.325C101.664 139.032 131.734 123.703 152.004 120.097C166.093 117.587 179.214 116.316 191.001 116.316C199.309 116.316 206.965 116.936 213.891 118.175C202.756 114.378 190.318 112.456 176.8 112.456ZM190.826 121.606C179.326 121.606 166.57 122.845 152.941 125.275C119.964 131.153 69.4974 166.878 74.4376 237.709C76.3279 264.92 83.7461 289.493 96.5017 310.97C90.7514 298.5 86.9231 284.982 85.0964 270.622C80.728 236.406 85.8747 206.304 100.378 181.19C118.185 150.358 149.033 129.628 185.028 124.306C190.874 123.449 196.751 123.004 202.518 123.004C206.409 123.004 210.269 123.194 214.066 123.592C207.156 122.273 199.372 121.606 190.842 121.606H190.826Z" fill="url(#paint2_linear_30876_22369)"/>
<defs>
<linearGradient id="paint0_linear_30876_22369" x1="164.823" y1="335.687" x2="353.361" y2="119.017" gradientUnits="userSpaceOnUse">
<stop stop-color="#038C8C"/>
<stop offset="0.13" stop-color="#048686" stop-opacity="0.95"/>
<stop offset="0.33" stop-color="#077678" stop-opacity="0.8"/>
<stop offset="0.57" stop-color="#0B5B60" stop-opacity="0.56"/>
<stop offset="0.84" stop-color="#12373F" stop-opacity="0.23"/>
<stop offset="1" stop-color="#171F29" stop-opacity="0"/>
</linearGradient>
<linearGradient id="paint1_linear_30876_22369" x1="356.308" y1="166.779" x2="74.6396" y2="110.54" gradientUnits="userSpaceOnUse">
<stop stop-color="#038C8C"/>
<stop offset="0.13" stop-color="#048686" stop-opacity="0.95"/>
<stop offset="0.33" stop-color="#077678" stop-opacity="0.8"/>
<stop offset="0.57" stop-color="#0B5B60" stop-opacity="0.56"/>
<stop offset="0.84" stop-color="#12373F" stop-opacity="0.23"/>
<stop offset="1" stop-color="#171F29" stop-opacity="0"/>
</linearGradient>
<linearGradient id="paint2_linear_30876_22369" x1="97.061" y1="83.0924" x2="183.972" y2="356.845" gradientUnits="userSpaceOnUse">
<stop stop-color="#038C8C"/>
<stop offset="0.13" stop-color="#048686" stop-opacity="0.95"/>
<stop offset="0.33" stop-color="#077678" stop-opacity="0.8"/>
<stop offset="0.57" stop-color="#0B5B60" stop-opacity="0.56"/>
<stop offset="0.84" stop-color="#12373F" stop-opacity="0.23"/>
<stop offset="1" stop-color="#171F29" stop-opacity="0"/>
</linearGradient>
</defs>
</svg>
