<svg width="21" height="20" viewBox="0 0 21 20" fill="none" xmlns="http://www.w3.org/2000/svg">
<rect x="0.285889" width="20" height="20" rx="3" fill="url(#paint0_linear_2169_8000)"/>
<g clip-path="url(#clip0_2169_8000)">
<path d="M11.7492 17.3499C9.32267 17.3499 7.69017 15.4839 7.3875 15.1098C5.56954 12.8628 6.90065 10.3804 7.18658 9.90539C7.20976 9.86691 7.25226 9.84294 7.29799 9.84294C7.31022 9.84294 7.32181 9.84483 7.33341 9.84798C7.38493 9.86249 7.42163 9.90539 7.42678 9.95712C7.45126 10.2031 7.58907 11.0756 8.32321 11.9827C9.19774 13.0634 10.4902 13.6835 11.8696 13.6829C12.9998 13.6829 14.1165 13.2772 15.1893 12.4773C17.4897 10.7627 17.4034 8.25638 17.4021 8.23114L17.4652 8.22168C17.48 8.27404 17.8187 9.53067 17.7157 11.1097C17.6184 12.5884 17.1007 14.6512 15.1829 16.0813C14.054 16.9229 12.8993 17.3493 11.7505 17.3499H11.7492ZM6.70874 11.8988C6.58832 12.77 6.6862 13.9074 7.55429 14.9799C7.84537 15.3401 9.41733 17.1367 11.7511 17.1367C12.8549 17.1367 13.9658 16.7254 15.0535 15.9148C16.7478 14.6518 17.3119 12.8716 17.4684 11.4787C17.2102 12.7707 16.5417 14.3862 14.8931 15.6151C13.8917 16.3614 12.8562 16.7399 11.8149 16.7399C11.3686 16.7399 10.9146 16.6699 10.4664 16.5317C9.29562 16.1703 8.33931 15.3754 7.83507 14.7515C6.96891 13.681 6.72742 12.6628 6.70939 11.8982L6.70874 11.8988ZM6.95861 11.3052C6.84527 12.1707 6.98115 13.3611 8.00186 14.6228C8.48678 15.2221 9.40574 15.9867 10.5308 16.3336C10.9571 16.4649 11.3886 16.5317 11.8129 16.5317C12.8085 16.5317 13.8016 16.1677 14.7643 15.4498C16.3434 14.2727 16.9996 12.7164 17.2552 11.4207C16.9268 12.5505 16.2326 13.9043 14.7824 14.9855C13.9007 15.6422 12.9476 15.976 11.9482 15.976C11.5367 15.976 11.1207 15.9186 10.7117 15.8056C9.59894 15.4984 8.65357 14.8083 8.20987 14.2601C7.24647 13.0691 6.99467 12.0042 6.95796 11.3052H6.95861ZM7.19559 11.5241C7.27416 12.208 7.56266 13.1233 8.3773 14.1301C8.79911 14.6518 9.70262 15.3098 10.7697 15.6044C11.1587 15.7116 11.5547 15.7665 11.9463 15.7665C12.8993 15.7665 13.8099 15.4479 14.6529 14.8196C16.163 13.6936 16.8289 12.2509 17.1161 11.0876C16.7426 12.0748 15.995 13.3233 14.5009 14.4367C13.6741 15.053 12.7924 15.3653 11.8799 15.3653C10.4722 15.3653 9.25376 14.5988 8.63811 13.9421C7.7623 13.0085 7.36689 12.1606 7.19495 11.5241H7.19559ZM7.3553 11.2402C7.49054 11.9096 7.86405 12.8079 8.79589 13.8008C9.00518 14.0241 9.78247 14.7748 10.9925 15.0587C11.29 15.1287 11.5895 15.1641 11.8819 15.1641C12.7384 15.1641 13.5768 14.8632 14.3728 14.2695C15.5448 13.3958 16.241 12.4382 16.6538 11.6137C16.1457 12.4805 15.4231 13.2255 14.4977 13.8368C13.6451 14.4001 12.7461 14.6859 11.8271 14.6859C10.3621 14.6859 9.21448 13.956 8.67675 13.3308C7.92265 12.454 7.54334 11.75 7.3553 11.2402ZM7.54077 11.1235C7.70949 11.5992 8.07077 12.3013 8.84033 13.1965C9.34843 13.7869 10.4348 14.4771 11.8252 14.4771C12.7029 14.4771 13.562 14.2033 14.3792 13.6639C15.2962 13.0583 16.0085 12.3158 16.5037 11.4503C16.1824 11.8957 15.7857 12.2956 15.3188 12.6439C14.206 13.4734 13.0449 13.8942 11.869 13.8942C10.4258 13.8942 9.0728 13.2451 8.15642 12.1121C7.90784 11.8048 7.69983 11.4699 7.54141 11.1235H7.54077Z" fill="url(#paint1_linear_2169_8000)"/>
<path d="M12.0331 12.9184C11.9745 12.9184 11.9237 12.8787 11.9089 12.8225C11.8953 12.7714 11.9153 12.7191 11.9584 12.6888C12.1632 12.545 12.8658 11.9917 13.3011 10.9155C14.11 8.91448 13.5169 6.16087 10.3053 4.84304C9.60146 4.55412 8.8699 4.40776 8.13125 4.40776C6.55221 4.40776 5.45615 5.08213 5.4452 5.08907L5.40527 5.0405C5.44456 5.00201 6.38413 4.08667 7.83373 3.38391C8.9343 2.85022 10.0426 2.57959 11.1271 2.57959C11.9423 2.57959 12.7389 2.73667 13.495 3.04704C14.8036 3.58389 15.7579 4.35036 16.3324 5.325C17.5463 7.38343 16.7123 9.70177 16.5333 10.1459C15.4669 12.7853 12.6211 12.9191 12.0615 12.9191H12.0331V12.9184ZM10.0709 3.40536C10.977 3.40536 11.8696 3.58326 12.7248 3.934C13.7461 4.35351 14.5176 4.99571 15.0174 5.84355C15.2228 6.19241 15.3806 6.57407 15.4849 6.97717C15.7695 8.07483 15.6324 9.22233 15.3696 9.8721C14.7984 11.2852 13.9825 12.0308 13.3829 12.4112C14.2046 12.075 15.1893 11.3647 15.794 9.86768C16.0812 9.15672 16.2976 7.99472 16.0419 6.86741C15.7167 5.43288 14.7417 4.37307 13.144 3.71762C12.3416 3.38833 11.5031 3.22115 10.6531 3.22115C9.88482 3.22115 9.10624 3.35489 8.3296 3.61984C8.90596 3.47727 9.48877 3.40473 10.0703 3.40473L10.0709 3.40536ZM10.6428 3.01172C11.5276 3.01172 12.397 3.18457 13.2271 3.52522C14.3875 4.0015 15.2402 4.69101 15.7612 5.57419C15.9846 5.95269 16.1488 6.37283 16.2512 6.82262C16.5172 7.99661 16.2924 9.2053 15.9936 9.94527C15.4804 11.2158 14.7005 11.9293 14.034 12.3273C14.8641 11.9942 15.821 11.3426 16.3356 10.0695C16.5082 9.64247 17.3106 7.41056 16.1443 5.43099C15.5924 4.49482 14.6735 3.75737 13.4132 3.24008C12.6842 2.94106 11.9153 2.78903 11.1277 2.78903C10.1926 2.78903 9.23761 2.99721 8.28452 3.40851C9.06696 3.14545 9.85841 3.01235 10.6441 3.01235L10.6428 3.01172ZM8.81516 4.03304C9.83523 4.03304 10.8572 4.27403 11.8522 4.74968C12.7769 5.19127 13.4782 5.81075 13.938 6.5911C14.6709 7.83385 14.5988 9.1725 14.3154 9.94086C13.9168 11.019 13.484 11.6927 13.1279 12.1072C13.6521 11.658 14.2594 10.8915 14.6715 9.60462C14.7643 9.31507 15.0393 8.28049 14.6851 7.11217C14.3425 5.98045 13.5394 5.14837 12.2972 4.63865C11.2881 4.22482 10.2725 4.01475 9.27947 4.01475C9.11139 4.01475 8.94331 4.02106 8.77717 4.03304C8.7894 4.03304 8.80228 4.03304 8.81452 4.03304H8.81516ZM9.28012 3.80594C10.3015 3.80594 11.3447 4.02169 12.3802 4.44624C13.3385 4.83926 14.0559 5.43162 14.5118 6.20566C15.2157 7.39984 15.1474 8.8167 14.875 9.6677C14.4874 10.8777 13.9355 11.6366 13.4589 12.1015C14.0243 11.6933 14.6896 10.9906 15.1726 9.79576C15.4224 9.17691 15.5525 8.08114 15.2795 7.0289C15.038 6.09968 14.385 4.84178 12.643 4.12704C11.8161 3.78765 10.9558 3.61606 10.0851 3.61606C9.42952 3.61606 8.76686 3.71258 8.10936 3.90372C8.49188 3.83938 8.88407 3.8072 9.28012 3.8072V3.80594ZM8.74368 4.24185C9.29686 4.29232 9.84811 4.42921 10.3878 4.65064C11.6777 5.17991 12.6301 5.95458 13.2181 6.95194C13.94 8.1764 14.0424 9.64878 13.4988 10.9925C13.3514 11.3571 13.1595 11.7009 12.9328 12.0081C13.2689 11.6271 13.7088 10.9698 14.1158 9.86957C14.5775 8.61862 14.3463 6.17411 11.7594 4.93704C10.7935 4.47526 9.80303 4.24122 8.81452 4.24122C8.79133 4.24122 8.76751 4.24122 8.74432 4.24122L8.74368 4.24185Z" fill="url(#paint2_linear_2169_8000)"/>
<path d="M8.70701 16.8801C8.65292 16.8663 7.37075 16.5243 6.02869 15.6481C4.76971 14.8267 3.20547 13.3556 2.90022 11.014C2.72055 9.63557 2.92083 8.44265 3.49526 7.46737C4.70853 5.40831 7.17498 4.95663 7.65668 4.88661C7.88143 4.8538 8.10618 4.8374 8.32449 4.8374C10.7993 4.8374 12.1188 6.9034 12.3578 7.31786C12.3867 7.3677 12.3771 7.43078 12.3352 7.47116C12.3107 7.4945 12.2785 7.50712 12.2451 7.50712C12.227 7.50712 12.209 7.50333 12.1922 7.49576C12.0332 7.42511 11.4504 7.19485 10.6203 7.19485C10.3994 7.19485 10.1753 7.21125 9.95376 7.24343C7.78032 7.55821 5.6423 9.43749 6.08343 12.8213C6.44921 15.6317 8.7083 16.8101 8.73084 16.8215L8.70766 16.8801H8.70701ZM8.32191 5.04684C8.11455 5.04684 7.90075 5.06261 7.68759 5.09352C7.22328 5.16039 4.84956 5.59567 3.68266 7.57525C3.13077 8.51141 2.93886 9.65954 3.11145 10.9875C3.38064 13.056 4.67246 14.4249 5.82584 15.2545C4.81285 14.3889 3.71873 13.0143 3.45663 11.002C3.29756 9.77877 3.48045 8.71139 4.00079 7.82821C4.22361 7.44971 4.51276 7.09959 4.85922 6.78859C5.76401 5.97607 6.94508 5.56224 7.74877 5.44616C8.0392 5.4039 8.32771 5.38308 8.60526 5.38308C9.5751 5.38308 10.3195 5.64235 10.8412 5.92182C10.0832 5.34144 9.23766 5.0481 8.32256 5.0481L8.32191 5.04684ZM8.98715 6.14513C8.67868 6.14513 8.3554 6.16911 8.02697 6.21705C7.35465 6.3142 6.32106 6.752 5.52767 7.50964C4.82638 8.17896 4.04136 9.36179 4.28028 11.1969C4.52048 13.0415 5.46263 14.3271 6.34811 15.1529C5.66227 14.3423 4.93263 13.0844 4.695 11.26C4.56363 10.2506 4.72785 9.34601 5.18443 8.57197C5.8883 7.37779 7.17498 6.7274 8.06303 6.5331C8.60398 6.4145 9.1256 6.35457 9.61245 6.35457C10.0993 6.35457 10.5205 6.40945 10.9236 6.51733C10.3511 6.27004 9.70132 6.14513 8.98715 6.14513ZM8.60269 5.59062C8.33672 5.59062 8.05917 5.61144 7.77904 5.65182C7.0069 5.76348 5.87156 6.1609 5.00218 6.94188C3.89647 7.93483 3.44697 9.29239 3.66656 10.9755C3.91772 12.9039 4.96548 14.2382 5.98297 15.1037C5.14837 14.2603 4.29831 12.9948 4.06777 11.2234C3.92738 10.1472 4.10962 9.1719 4.60935 8.32405C4.81478 7.9752 5.07367 7.65095 5.37762 7.36013C6.20579 6.56969 7.28896 6.11296 7.99477 6.01076C8.3335 5.96156 8.66773 5.93696 8.98843 5.93696C10.0252 5.93696 10.7742 6.19686 11.2321 6.42586C10.6667 6.00509 9.805 5.59189 8.60204 5.59189L8.60269 5.59062ZM9.58863 6.56653C9.12174 6.56653 8.62394 6.62394 8.10875 6.73623C7.80673 6.80247 6.75446 7.08635 5.89796 7.97078C5.06851 8.82683 4.73493 9.92449 4.90559 11.2329C5.09234 12.6642 5.59078 13.7329 6.11305 14.4956C5.60109 13.6307 5.30357 12.6459 5.22565 11.5546C5.15416 10.549 5.35058 9.6444 5.81038 8.86468C6.54259 7.62193 7.76165 7.01317 8.58337 6.86997C9.15458 6.7703 9.68651 6.71983 10.1643 6.71983C10.5011 6.71983 10.8115 6.74443 11.0923 6.79364C10.6409 6.64287 10.1367 6.56653 9.58863 6.56653ZM10.1573 6.9299C9.69102 6.9299 9.1739 6.9791 8.62136 7.07562C7.28446 7.30903 5.23852 8.72779 5.4388 11.5407C5.51544 12.6213 5.81618 13.5972 6.33329 14.4501C6.10017 13.9549 5.94497 13.4181 5.87092 12.8478C5.69382 11.489 5.90247 10.2935 6.49043 9.29618C7.21233 8.07172 8.46294 7.24847 9.92221 7.03714C10.1592 7.00308 10.3975 6.98541 10.6312 6.98541C10.789 6.98541 10.9455 6.99298 11.0994 7.00875C10.8193 6.95639 10.5037 6.9299 10.1579 6.9299H10.1573Z" fill="url(#paint3_linear_2169_8000)"/>
</g>
<defs>
<linearGradient id="paint0_linear_2169_8000" x1="24.9734" y1="22.8125" x2="1.22339" y2="0.625001" gradientUnits="userSpaceOnUse">
<stop stop-color="#038C8C"/>
<stop offset="1" stop-color="#0B4646"/>
</linearGradient>
<linearGradient id="paint1_linear_2169_8000" x1="9.10307" y1="15.4315" x2="16.5676" y2="6.67444" gradientUnits="userSpaceOnUse">
<stop stop-color="white"/>
<stop offset="1" stop-color="white" stop-opacity="0"/>
</linearGradient>
<linearGradient id="paint2_linear_2169_8000" x1="16.8665" y1="8.72352" x2="5.46622" y2="6.40037" gradientUnits="userSpaceOnUse">
<stop stop-color="white"/>
<stop offset="1" stop-color="white" stop-opacity="0"/>
</linearGradient>
<linearGradient id="paint3_linear_2169_8000" x1="6.35597" y1="5.4004" x2="9.74989" y2="16.3118" gradientUnits="userSpaceOnUse">
<stop stop-color="white"/>
<stop offset="1" stop-color="white" stop-opacity="0"/>
</linearGradient>
<clipPath id="clip0_2169_8000">
<rect width="14.8341" height="14.7074" fill="white" transform="translate(2.86865 2.61108)"/>
</clipPath>
</defs>
</svg>
